<?xml version="1.0" standalone="no"?>
<!DOCTYPE svg PUBLIC "-//W3C//DTD SVG 20010904//EN"
 "http://www.w3.org/TR/2001/REC-SVG-20010904/DTD/svg10.dtd">
<svg version="1.0" xmlns="http://www.w3.org/2000/svg"
 width="512.000000pt" height="512.000000pt" viewBox="0 0 512.000000 512.000000"
 preserveAspectRatio="xMidYMid meet">
<metadata>
Created by potrace 1.11, written by Peter Selinger 2001-2013
</metadata>
<g transform="translate(0.000000,512.000000) scale(0.100000,-0.100000)"
fill="#000000" stroke="none">
<path d="M2486 4773 c-3 -8 -11 -11 -17 -7 -7 4 -9 3 -6 -3 8 -12 -31 -46 -44
-38 -5 4 -8 2 -7 -3 2 -5 -19 -30 -46 -56 -41 -40 -51 -45 -65 -34 -13 10 -14
10 -4 -1 9 -11 -17 -43 -137 -162 -136 -137 -174 -170 -154 -136 5 8 2 8 -9
-2 -19 -15 -23 -26 -6 -15 7 4 10 1 7 -7 -3 -8 -11 -13 -17 -11 -7 1 -10 -1
-8 -5 3 -5 -1 -17 -9 -27 -11 -16 -16 -17 -31 -5 -15 11 -16 11 -6 -1 15 -17
-2 -54 -22 -46 -9 3 -12 0 -9 -9 3 -8 -4 -20 -15 -27 -12 -7 -21 -16 -21 -21
0 -14 -63 -77 -71 -71 -5 3 -6 -2 -3 -10 4 -10 1 -16 -9 -16 -9 0 -19 -5 -23
-12 -5 -7 -3 -8 7 -3 12 8 12 6 0 -8 -7 -9 -17 -14 -22 -11 -5 3 -9 -2 -9 -10
0 -20 -45 -68 -55 -58 -5 4 -5 2 -2 -5 6 -10 -14 -40 -65 -97 -9 -10 -21 -16
-26 -13 -5 4 -9 0 -9 -8 0 -8 5 -11 11 -8 6 4 5 -1 -3 -10 -7 -9 -17 -15 -21
-12 -5 3 -12 0 -16 -6 -4 -8 -3 -9 4 -5 18 11 14 -2 -10 -34 -12 -17 -27 -30
-34 -30 -7 0 -16 -5 -20 -12 -4 -7 -3 -8 4 -4 22 13 12 -12 -11 -31 -13 -10
-25 -22 -28 -28 -2 -5 -8 -9 -13 -7 -5 2 -6 -4 -3 -12 4 -9 0 -19 -7 -23 -7
-5 -16 -16 -19 -26 -4 -11 -12 -15 -18 -11 -8 4 -9 3 -5 -5 5 -7 -1 -20 -13
-30 -11 -10 -18 -21 -14 -25 3 -3 1 -6 -6 -6 -7 0 -9 -4 -6 -10 3 -5 2 -10 -3
-10 -4 0 -16 -15 -25 -34 -14 -31 -57 -68 -57 -50 0 3 -7 1 -15 -6 -8 -7 -15
-18 -15 -24 0 -6 4 -5 9 3 12 19 41 23 34 5 -3 -8 -8 -14 -12 -14 -4 0 -15
-16 -24 -35 -9 -19 -22 -35 -27 -35 -6 0 -9 -4 -5 -9 3 -5 0 -16 -7 -23 -15
-16 -42 -60 -65 -105 -9 -18 -22 -33 -30 -33 -7 0 -10 -6 -7 -15 3 -8 -6 -25
-20 -40 -14 -14 -21 -25 -15 -25 6 0 7 -5 4 -10 -4 -6 -10 -8 -15 -5 -5 3 -12
0 -16 -6 -4 -8 -3 -9 4 -5 18 11 14 -10 -4 -28 -8 -9 -12 -16 -8 -16 4 0 -1
-7 -12 -15 -10 -8 -16 -15 -12 -15 4 0 -2 -18 -13 -39 -11 -22 -26 -39 -32
-37 -7 1 -9 1 -4 -1 4 -3 7 -12 7 -20 0 -11 -3 -13 -13 -5 -10 8 -13 6 -13 -8
0 -10 3 -17 7 -14 3 2 -1 -12 -10 -32 -14 -32 -17 -33 -28 -18 -14 20 -18 7
-4 -15 6 -9 -2 -38 -24 -85 -18 -39 -43 -93 -56 -121 -12 -27 -22 -54 -20 -59
1 -5 -4 -6 -12 -3 -7 3 -14 -1 -14 -9 0 -7 4 -11 9 -8 4 3 5 -2 2 -10 -3 -9
-10 -13 -15 -10 -5 3 -6 -2 -3 -10 3 -8 -2 -28 -10 -45 -9 -17 -16 -34 -16
-38 0 -21 -25 -80 -39 -91 -9 -8 -10 -11 -3 -7 16 8 15 5 -7 -48 -11 -25 -16
-49 -13 -53 4 -4 -2 -4 -12 0 -16 5 -17 4 -7 -8 9 -11 9 -20 2 -34 -6 -11 -7
-23 -3 -27 4 -4 -4 -4 -18 -1 -23 6 -23 6 -5 -5 19 -12 19 -12 0 -20 -15 -6
-16 -8 -4 -8 14 -1 14 -6 5 -36 -6 -19 -14 -35 -18 -35 -3 0 -4 -9 -1 -20 4
-14 0 -20 -11 -20 -9 0 -16 -5 -16 -11 0 -5 5 -7 10 -4 6 3 10 -1 10 -10 0 -9
-5 -13 -10 -10 -7 4 -9 -2 -4 -19 4 -16 2 -26 -5 -26 -6 0 -8 -7 -4 -17 4 -11
3 -14 -5 -9 -7 4 -12 3 -12 -3 0 -5 4 -11 10 -13 6 -2 4 -24 -5 -58 -8 -30
-12 -56 -9 -59 2 -3 -6 -11 -18 -19 -13 -7 -15 -11 -5 -8 9 3 17 1 17 -4 0 -6
-3 -10 -8 -10 -4 0 -13 -10 -21 -22 -13 -22 -13 -23 6 -5 16 14 20 14 20 2 0
-8 -6 -16 -14 -19 -16 -6 -17 -42 -2 -51 6 -4 7 -14 4 -24 -4 -9 -9 -43 -11
-76 -2 -33 -6 -84 -8 -112 -3 -35 -1 -53 6 -53 6 0 8 -3 5 -6 -4 -4 -13 -1
-22 6 -13 11 -14 10 -9 -4 3 -9 10 -16 15 -16 5 0 9 -5 9 -11 0 -5 -4 -7 -10
-4 -6 3 -10 2 -10 -3 0 -6 6 -12 13 -15 8 -3 12 -23 12 -56 0 -28 4 -51 9 -51
5 0 1 -8 -8 -19 -16 -17 -16 -20 -1 -35 20 -19 28 -56 15 -71 -5 -6 -7 -24 -5
-40 2 -17 4 -33 4 -37 2 -15 18 -8 18 7 0 8 -3 13 -6 11 -3 -2 -7 10 -8 27 -3
36 14 25 19 -13 1 -14 8 -28 13 -32 6 -5 5 -8 -3 -8 -7 0 -10 -5 -7 -10 4 -6
10 -8 15 -5 4 3 7 -3 6 -12 -2 -10 2 -22 8 -26 7 -6 6 -7 -4 -4 -8 2 -14 9
-13 15 1 5 -4 13 -12 16 -10 3 -12 0 -8 -12 6 -15 5 -15 -10 -3 -15 12 -17 12
-11 -3 3 -9 11 -16 18 -15 23 3 57 -14 52 -26 -2 -7 2 -22 10 -34 8 -11 12
-21 7 -21 -4 0 -1 -5 7 -10 8 -5 15 -20 15 -32 1 -13 6 -22 13 -21 7 2 9 -4 5
-14 -4 -11 -3 -14 6 -9 6 4 11 4 10 -1 -4 -22 2 -34 14 -27 6 4 9 4 5 -1 -11
-12 11 -47 25 -38 7 4 5 -2 -3 -12 -9 -11 -10 -16 -2 -11 7 4 19 1 27 -7 13
-13 13 -17 -1 -27 -12 -11 -13 -10 -8 6 5 16 4 17 -6 4 -10 -13 -11 -13 -6 2
4 13 1 15 -11 11 -13 -5 -15 -2 -10 11 5 11 3 15 -5 10 -7 -5 -8 -2 -3 7 6 11
5 11 -5 2 -10 -9 -8 -18 11 -42 13 -16 30 -28 37 -25 45 16 47 16 32 5 -14
-10 -13 -12 10 -15 6 0 10 -4 10 -8 0 -5 0 -11 0 -15 0 -3 -9 2 -20 12 -11 10
-20 13 -20 8 0 -6 7 -14 16 -17 8 -3 12 -11 9 -17 -4 -6 2 -19 14 -30 12 -11
21 -15 21 -9 0 6 5 8 12 4 7 -5 5 -11 -7 -21 -11 -7 -14 -13 -8 -13 13 0 26
18 29 38 1 6 -2 10 -6 7 -5 -3 -14 3 -20 14 -5 11 -6 22 -1 25 13 8 20 -4 13
-22 -5 -15 -3 -15 11 -4 14 12 16 11 12 -7 -4 -20 4 -25 33 -22 12 2 12 -32
-1 -45 -3 -4 -5 2 -2 14 2 14 -1 19 -13 18 -18 -3 -30 -26 -13 -26 6 0 8 -8 5
-17 -4 -11 -2 -14 3 -8 16 20 51 1 66 -35 4 -12 6 -11 6 2 1 10 4 17 8 17 5
-1 14 -1 21 0 15 1 6 21 -9 21 -6 0 -7 -5 -3 -12 4 -7 3 -8 -4 -4 -6 4 -9 13
-5 22 5 13 8 13 22 1 9 -8 23 -12 31 -10 8 3 0 -6 -17 -18 -18 -13 -33 -28
-33 -33 0 -5 6 -3 14 3 9 7 17 8 20 2 3 -5 0 -11 -6 -14 -7 -2 -9 -8 -5 -13 4
-5 11 -4 15 1 10 14 42 18 42 6 0 -5 -9 -13 -21 -16 -11 -4 -18 -9 -16 -12 3
-2 14 0 25 6 15 8 22 8 25 -2 4 -9 6 -9 6 1 1 7 5 11 11 7 5 -3 6 -13 3 -23
-3 -9 -4 -15 -2 -12 44 52 42 49 22 46 -10 -2 -21 2 -25 8 -5 8 -8 7 -8 -2 0
-8 -6 -6 -18 5 -18 18 -19 43 -1 43 4 0 5 -7 2 -17 -4 -10 -2 -14 5 -9 6 3 14
1 17 -5 4 -5 13 -8 19 -6 7 3 19 1 26 -3 11 -7 10 -13 -4 -35 -14 -21 -15 -30
-6 -39 8 -8 10 -7 5 5 -5 14 1 16 34 13 30 -2 41 1 41 11 0 8 -4 17 -10 20 -5
3 -10 11 -10 16 0 5 13 -4 30 -21 16 -17 30 -34 30 -38 0 -4 -8 2 -16 13 -10
12 -14 14 -12 5 3 -8 -2 -21 -11 -28 -14 -11 -13 -12 5 -3 15 7 27 6 43 -5 12
-9 27 -14 34 -11 6 2 25 -2 41 -10 15 -8 25 -10 22 -4 -4 6 -3 11 3 11 5 0 12
-6 15 -12 2 -7 3 -2 2 11 -2 14 -9 27 -17 29 -11 3 -12 2 -1 -6 11 -7 10 -10
-3 -16 -22 -8 -22 -8 -22 9 0 8 4 15 8 15 5 0 6 7 3 15 -4 8 -1 15 6 15 6 0 8
-5 5 -10 -8 -13 1 -13 28 1 19 9 20 8 6 -3 -15 -12 -15 -16 -3 -33 8 -10 14
-15 14 -10 0 5 9 -1 20 -13 23 -24 40 -31 21 -8 -9 10 -7 16 5 27 14 11 15 10
12 -6 -2 -13 3 -20 17 -22 18 -3 18 -2 2 5 -17 7 -17 9 -4 20 8 7 13 23 11 35
-4 20 -4 20 6 -2 l10 -24 27 24 c15 13 22 16 15 7 -11 -14 -11 -22 2 -45 8
-15 15 -25 16 -20 0 4 12 0 28 -9 25 -15 26 -15 7 1 -11 9 -19 24 -17 33 2 15
1 15 -8 2 -8 -13 -11 -13 -19 -1 -9 14 8 56 18 46 2 -3 -2 -12 -9 -20 -12 -14
-10 -15 13 -11 35 6 49 15 42 27 -4 5 -2 9 4 9 5 0 12 -6 15 -12 5 -11 7 -11
12 0 3 6 10 12 15 12 6 0 7 -5 4 -10 -4 -7 6 -10 25 -8 32 2 54 18 26 18 -8 0
-18 5 -22 12 -5 7 -3 8 6 3 22 -13 112 -14 107 0 -3 6 1 12 8 12 7 0 11 -7 8
-16 -3 -10 3 -8 15 6 16 18 21 20 26 8 3 -8 13 -15 21 -15 9 0 13 -5 10 -10
-4 -7 -11 -8 -18 -1 -9 6 -12 3 -13 -14 -2 -21 0 -22 17 -7 21 18 64 27 54 12
-3 -5 -1 -10 4 -10 6 0 11 3 11 8 0 13 -17 34 -26 32 -5 -1 -10 3 -12 8 -4 14
29 24 42 13 13 -11 71 21 59 32 -3 4 -1 7 6 7 8 0 11 -6 7 -16 -3 -9 -6 -18
-6 -20 0 -3 -5 -2 -12 2 -7 5 -8 3 -3 -6 5 -8 4 -11 -2 -7 -6 4 -17 -1 -24
-11 -7 -9 -9 -14 -5 -10 5 4 15 0 23 -10 12 -16 13 -16 7 2 -6 17 -5 17 17 6
13 -7 21 -9 17 -5 -4 4 0 14 8 22 11 11 12 19 4 28 -8 10 -8 15 1 21 8 4 9 3
5 -4 -4 -7 -2 -12 3 -12 19 0 26 -2 44 -12 14 -7 22 -5 32 9 7 10 11 21 9 25
-3 5 7 13 21 18 23 9 25 13 15 25 -9 10 -9 15 -1 15 6 0 11 -4 11 -10 0 -5 7
-10 16 -10 9 0 12 5 8 13 -5 7 0 6 11 -3 17 -14 18 -13 12 5 -7 20 -7 20 8 1
13 -18 19 -15 16 6 0 4 10 5 24 2 13 -2 27 0 30 6 3 5 12 10 18 10 7 0 3 -8
-8 -17 l-20 -16 20 8 c11 4 26 8 33 8 6 0 12 6 12 14 0 7 4 13 10 13 5 0 9 -3
9 -7 -4 -23 3 -25 17 -5 8 12 20 19 26 16 6 -4 24 -9 41 -10 26 -4 28 -2 16
14 -11 14 -11 15 0 5 7 -6 20 -9 27 -6 8 3 14 0 14 -7 0 -6 4 -9 10 -5 5 3 8
11 6 18 -1 7 -1 9 1 5 3 -5 11 -8 19 -8 9 0 12 5 8 12 -4 7 -3 8 4 4 6 -4 8
-14 5 -24 -6 -15 -5 -15 10 -3 9 7 17 10 17 5 0 -4 7 1 15 12 11 14 14 15 9 3
-3 -10 -1 -20 5 -24 6 -3 11 -12 11 -18 0 -7 -4 -6 -11 3 -10 13 -10 13 -6 -1
3 -11 -1 -15 -14 -14 -24 2 -38 15 -15 15 9 0 14 5 11 10 -5 8 -11 8 -19 1 -7
-6 -17 -7 -21 -3 -5 4 -5 1 0 -7 5 -10 4 -12 -4 -7 -6 4 -9 12 -6 17 4 5 2 9
-4 9 -5 0 -13 -5 -16 -10 -4 -6 -10 -8 -15 -5 -5 3 -12 0 -16 -6 -5 -8 -3 -9
6 -4 9 5 11 4 6 -3 -4 -8 -14 -9 -24 -4 -9 5 -24 8 -32 7 -8 0 -18 4 -22 10
-5 6 -11 5 -17 -4 -5 -7 -11 -9 -13 -5 -3 5 -3 3 -1 -4 1 -7 -1 -10 -6 -7 -18
10 -21 -13 -4 -26 9 -8 14 -9 10 -3 -4 7 0 17 8 24 12 10 18 10 30 0 8 -7 13
-16 10 -19 -2 -4 2 -8 10 -8 8 0 15 4 15 9 0 4 -5 8 -11 8 -5 0 -7 4 -4 10 4
6 13 5 26 -3 17 -10 22 -9 30 6 6 9 15 17 21 17 9 0 9 -3 0 -12 -7 -7 -12 -17
-12 -23 0 -5 5 -2 11 8 6 10 15 14 22 10 7 -4 26 -8 43 -9 24 -2 34 3 42 21 8
18 8 25 -1 28 -9 3 -9 7 0 16 7 6 11 8 8 5 -3 -4 0 -13 6 -20 9 -11 15 -11 32
1 12 8 26 15 31 15 6 0 -1 -8 -14 -17 -41 -29 -64 -52 -57 -60 4 -3 7 -1 7 5
0 7 5 12 11 12 5 0 8 -4 5 -9 -3 -4 1 -17 10 -27 14 -18 15 -18 4 4 -11 22 -6
27 26 23 7 -1 14 5 17 12 3 8 -1 14 -9 14 -7 0 -11 -3 -9 -7 2 -3 -6 -7 -18
-7 -21 -2 -21 -1 3 17 13 10 28 16 32 14 4 -3 8 1 8 8 0 10 2 10 9 -1 5 -8 23
-15 41 -16 24 -1 30 2 25 14 -3 11 0 10 10 -3 16 -21 11 -40 -8 -30 -9 5 -9 4
0 -6 7 -8 17 -9 28 -3 20 12 21 23 3 34 -22 15 6 9 32 -6 14 -8 19 -14 12 -15
-7 0 -11 -4 -7 -10 3 -5 11 -7 18 -4 16 6 59 -30 49 -41 -4 -5 -1 -5 6 -1 11
6 11 11 0 24 -7 10 -17 20 -21 23 -5 3 -1 9 8 12 9 4 14 3 11 -1 -7 -12 10
-35 29 -38 12 -2 15 3 11 14 -5 13 -2 12 9 -2 15 -20 15 -20 16 0 0 10 3 13 6
6 2 -6 10 -10 16 -6 7 3 5 0 -3 -8 -9 -7 -15 -20 -15 -28 1 -8 -3 -21 -8 -28
-7 -9 -6 -11 7 -6 9 3 16 11 16 16 0 6 6 5 15 -2 8 -6 19 -9 25 -5 7 4 14 -2
17 -14 3 -12 9 -21 14 -21 5 0 6 7 2 15 -5 13 -2 14 20 4 15 -7 24 -16 20 -22
-3 -6 -1 -7 6 -3 6 4 18 2 26 -4 8 -7 15 -9 15 -6 0 9 -32 42 -37 38 -2 -2 -9
-1 -16 1 -9 4 -9 6 1 6 7 1 10 6 7 11 -4 6 -12 7 -18 3 -19 -12 -38 -12 -31
-1 4 6 3 8 -2 5 -6 -3 -11 4 -11 16 -2 17 0 19 7 7 9 -13 11 -13 21 0 8 12 9
9 3 -10 -6 -21 -5 -23 8 -12 12 10 18 9 28 -3 11 -14 14 -13 26 2 13 17 14 17
7 -1 -4 -11 -2 -17 3 -14 12 8 50 -20 40 -29 -4 -4 -11 -1 -15 6 -6 9 -8 5 -8
-13 0 -31 15 -44 28 -25 8 11 12 10 24 -5 8 -11 25 -21 37 -22 13 -2 17 0 11
2 -7 3 -15 4 -17 2 -6 -4 -35 33 -36 45 0 4 17 -3 37 -17 20 -14 40 -23 45
-20 13 8 49 -27 41 -40 -3 -6 0 -5 7 1 12 11 11 16 -6 29 -16 13 -16 15 -1 10
11 -3 17 0 17 10 0 12 -4 12 -20 4 -17 -9 -20 -8 -20 7 -1 17 -2 16 -15 -1 -8
-11 -15 -14 -15 -7 0 7 -4 10 -9 6 -5 -3 -13 0 -17 6 -4 8 -3 9 4 5 7 -4 12
-2 12 3 0 6 -3 11 -8 11 -4 0 -13 10 -21 23 -13 21 -12 21 14 -3 20 -18 29
-21 32 -12 4 10 9 7 20 -7 9 -14 22 -20 36 -17 19 3 22 0 21 -28 -1 -25 2 -32
18 -33 10 -1 22 5 25 13 8 22 23 17 24 -8 1 -18 2 -19 6 -5 2 9 9 14 15 11 6
-4 9 -3 6 2 -3 5 4 18 15 28 20 19 20 19 13 0 -13 -31 -15 -63 -4 -71 7 -4 8
-1 3 7 -6 10 -3 12 13 8 12 -4 20 -2 16 3 -3 5 -12 9 -20 9 -8 0 -14 4 -14 10
0 5 8 7 18 4 14 -5 15 -4 2 5 -11 8 -12 11 -2 11 7 0 11 4 7 9 -3 5 0 13 6 16
17 11 23 -3 9 -20 -8 -10 -9 -15 -1 -15 6 0 10 -3 10 -7 -6 -35 16 -45 26 -13
4 11 11 17 17 14 6 -4 21 6 34 22 13 16 23 23 24 17 0 -7 -4 -13 -10 -13 -5 0
-10 -4 -10 -8 0 -5 7 -9 15 -9 14 0 20 11 15 32 -1 6 4 4 11 -3 15 -13 33 -17
25 -4 -3 5 1 9 9 9 11 0 12 -4 4 -13 -7 -9 -6 -21 4 -40 14 -27 15 -27 21 -6
4 12 12 20 17 16 6 -3 5 -12 -3 -22 -12 -15 -11 -15 11 0 13 9 30 14 37 11 8
-3 14 1 14 11 0 9 -5 16 -11 16 -5 0 -8 -4 -5 -8 2 -4 -4 -8 -14 -9 -11 -1
-23 3 -26 9 -5 8 -1 9 10 5 14 -6 16 -3 11 13 -4 12 -2 20 5 20 6 0 8 -4 5
-10 -10 -17 27 -11 49 8 20 16 20 16 7 0 -8 -11 -9 -18 -3 -18 6 0 18 10 27
23 l17 22 -7 -25 c-6 -23 -5 -24 9 -6 14 18 42 14 30 -5 -3 -5 -10 -6 -16 -3
-7 5 -8 2 -3 -6 5 -8 4 -11 -3 -6 -18 11 -23 -11 -5 -25 9 -8 14 -9 10 -3 -4
7 0 17 8 24 23 19 51 -6 33 -29 -12 -14 -11 -14 4 -2 10 7 15 18 12 23 -3 5 2
8 11 6 28 -5 29 37 2 51 -12 6 -14 9 -5 7 10 -3 19 2 21 12 3 12 5 11 6 -5 0
-13 5 -23 11 -23 5 0 7 -7 4 -15 -4 -8 -1 -15 6 -15 6 0 8 5 4 12 -5 7 -2 9 8
6 17 -7 19 26 4 52 -5 8 -6 12 -1 8 4 -4 15 -2 24 5 14 10 14 10 4 -4 -10 -12
-10 -18 0 -29 10 -10 9 -11 -1 -5 -11 6 -12 3 -3 -14 7 -12 9 -27 5 -34 -4 -7
-3 -8 2 -4 5 5 10 23 10 40 3 55 3 57 21 50 10 -4 14 -2 10 4 -4 6 6 19 21 29
19 12 24 13 15 2 -10 -12 -10 -18 2 -34 20 -27 18 -36 -4 -22 -10 6 -17 18
-14 25 3 7 1 13 -3 13 -5 0 -10 -17 -10 -38 -1 -20 1 -29 3 -19 5 20 14 22 31
5 9 -9 13 -7 18 5 8 23 25 22 18 0 -5 -15 -4 -16 5 -3 8 11 7 18 -3 25 -7 6
-12 18 -10 28 1 9 -2 15 -7 11 -5 -3 -7 -9 -4 -14 3 -5 1 -11 -4 -14 -5 -4 -8
2 -6 11 2 10 4 21 4 26 2 16 21 5 36 -20 l15 -28 -7 30 c-3 17 -11 34 -17 38
-7 6 -5 7 6 4 10 -4 22 3 32 19 9 13 22 23 28 21 7 -1 13 5 13 13 0 8 6 14 13
12 7 -1 15 5 18 13 4 11 13 13 28 9 19 -6 20 -5 6 12 -14 18 -14 18 3 5 9 -8
20 -11 24 -8 3 4 15 2 26 -4 11 -7 17 -7 13 -1 -8 13 18 34 30 24 5 -4 1 2 -8
14 -19 22 -7 47 17 38 7 -3 16 -1 20 5 3 7 0 8 -9 5 -9 -3 -16 -1 -16 5 0 6 9
11 20 11 11 0 20 4 20 10 0 5 -6 7 -13 4 -8 -3 -14 2 -14 11 0 9 6 14 12 11 7
-2 19 4 29 15 20 24 20 26 1 26 -8 0 -12 -4 -9 -9 3 -4 0 -8 -6 -8 -6 0 -9 -4
-6 -9 3 -5 -2 -8 -12 -7 -9 0 -16 -5 -15 -11 2 -7 -2 -13 -7 -13 -5 0 -9 -3
-9 -8 1 -4 1 -14 0 -22 -1 -13 -3 -13 -12 0 -9 13 -10 12 -5 -2 3 -12 1 -15
-9 -12 -11 5 -7 15 17 45 17 21 36 39 41 39 5 0 6 7 3 16 -3 8 -2 12 4 9 6 -3
11 -1 11 4 1 6 2 17 3 24 1 6 7 11 14 10 16 -4 16 14 0 20 -10 4 -10 6 0 6 7
1 10 6 6 13 -4 7 -3 8 5 4 6 -4 8 -12 5 -18 -4 -6 -3 -8 3 -5 5 3 9 20 8 37
-1 17 2 33 7 36 4 3 5 10 2 16 -4 7 -2 8 4 4 8 -5 12 0 12 13 0 12 4 21 8 21
5 0 8 -10 6 -22 -1 -13 -3 -27 -3 -31 -1 -5 -6 -5 -13 -1 -7 5 -8 3 -3 -6 6
-9 4 -11 -5 -5 -9 6 -11 4 -5 -5 6 -10 12 -8 25 8 10 12 19 20 21 19 3 -1 1 2
-3 8 -13 15 -9 25 10 25 11 1 6 6 -13 15 -16 7 -27 14 -22 15 21 6 33 5 40 -5
5 -6 7 -4 4 5 -2 8 -9 15 -15 15 -5 0 -14 3 -18 7 -4 5 2 8 14 8 12 0 23 8 27
20 8 25 -4 48 -16 29 -4 -7 -11 -11 -14 -7 -3 3 1 13 9 21 12 11 13 16 3 20
-9 3 -9 7 0 19 7 8 10 18 6 21 -7 7 15 37 28 37 4 0 11 -9 14 -21 4 -11 9 -18
12 -16 2 3 -1 15 -7 27 -8 16 -17 19 -33 14 -19 -6 -20 -5 -8 9 10 13 18 14
35 6 20 -10 20 -9 2 5 -10 9 -23 13 -27 10 -13 -8 -11 10 4 25 6 8 7 11 1 8
-6 -4 -10 6 -8 26 1 18 2 42 3 55 0 13 6 20 11 17 6 -4 8 -10 5 -15 -3 -4 1
-10 8 -13 7 -3 13 3 13 13 0 10 -3 17 -6 16 -3 -2 -14 5 -24 15 -17 17 -18 19
-3 19 9 0 17 5 17 11 0 5 -5 7 -10 4 -7 -4 -10 6 -8 29 1 19 -1 38 -5 42 -4 4
1 16 10 27 10 11 12 17 6 13 -13 -7 -15 -3 -17 49 -1 17 -5 36 -10 44 -7 11
-5 13 7 8 9 -3 19 -2 22 4 4 5 3 9 -2 8 -25 -4 -32 3 -29 31 2 17 1 30 -3 30
-6 0 -8 19 -14 107 -1 22 -5 39 -9 36 -5 -2 -8 5 -8 16 0 30 1 27 -15 71 -8
22 -12 40 -10 40 3 0 0 12 -6 27 -14 35 -22 73 -21 96 0 9 -4 17 -9 17 -6 0
-7 5 -4 10 4 6 12 7 18 3 7 -4 6 0 -2 10 -15 19 -26 23 -15 5 5 -7 3 -8 -5 -4
-7 5 -10 14 -7 21 3 8 0 16 -7 18 -9 3 -8 8 2 21 8 9 11 19 7 23 -3 3 -6 1 -6
-6 0 -7 -5 -9 -10 -6 -6 4 -8 10 -5 15 3 5 1 11 -5 15 -5 3 -10 17 -10 30 0
13 -4 26 -10 30 -5 3 -6 13 -3 22 5 12 3 14 -6 8 -10 -5 -11 -2 -6 14 4 13 2
21 -5 21 -7 0 -10 8 -7 19 3 12 -1 22 -9 25 -8 3 -14 14 -14 25 0 11 -4 23
-10 26 -5 3 -10 13 -10 20 0 8 -13 44 -30 79 -52 115 -60 137 -47 131 7 -4 5
-1 -4 7 -17 15 -62 104 -62 125 0 7 -3 13 -6 13 -4 0 -12 9 -19 21 -11 17 -11
20 0 14 7 -3 5 0 -5 8 -10 9 -20 22 -21 30 -1 8 -8 23 -16 33 -8 10 -10 15 -3
11 6 -4 15 -3 18 3 4 6 3 10 -2 9 -23 -4 -32 4 -46 40 -9 22 -21 42 -27 46 -8
5 -7 12 2 23 11 13 11 15 -3 10 -12 -5 -21 4 -35 35 -10 23 -23 45 -28 49 -11
7 -63 95 -72 121 -4 9 -11 17 -17 17 -6 0 -3 6 8 13 14 11 15 16 5 22 -9 5
-11 4 -6 -3 4 -7 1 -12 -6 -12 -20 0 -68 83 -63 108 2 12 0 24 -5 27 -5 3 -7
-5 -5 -17 4 -23 4 -23 -15 2 -11 14 -25 31 -30 38 -6 6 -7 12 -3 12 4 0 0 5
-9 11 -10 5 -15 16 -11 25 3 8 2 14 -3 12 -5 -2 -11 2 -13 7 -2 6 -12 16 -23
24 -12 8 -18 21 -15 31 3 12 0 17 -8 14 -7 -3 -16 0 -21 7 -4 7 -3 10 4 5 6
-3 14 -1 18 6 4 7 4 10 -1 6 -11 -10 -47 11 -40 22 3 6 1 18 -5 27 -10 16 -11
16 -6 -2 5 -14 -3 -10 -24 14 -16 18 -30 40 -30 47 0 8 -5 14 -11 14 -6 0 -8
9 -4 20 4 12 2 20 -5 20 -6 0 -8 -4 -5 -10 3 -5 2 -10 -4 -10 -5 0 -13 9 -16
20 -3 11 -11 20 -16 20 -5 0 -9 6 -9 13 0 7 -9 18 -20 25 -11 7 -20 17 -20 22
0 6 -13 24 -30 41 -16 18 -27 36 -23 42 3 5 2 7 -4 4 -6 -4 -21 6 -34 21 -19
22 -20 24 -3 12 11 -8 5 -1 -13 15 -18 17 -33 36 -33 43 0 7 -4 10 -10 7 -5
-3 -10 -1 -10 5 0 7 -11 21 -25 32 -14 11 -23 23 -20 28 3 4 -2 11 -11 14 -8
3 -12 10 -9 16 3 6 -1 7 -9 4 -14 -6 -21 5 -17 28 0 5 -5 7 -12 5 -6 -1 -11 4
-10 10 2 7 -1 12 -5 10 -5 -1 -30 19 -55 44 -31 31 -42 50 -35 57 6 6 6 12 -3
17 -8 5 -10 4 -5 -3 4 -7 1 -12 -9 -12 -9 0 -19 9 -22 19 -3 11 -14 22 -25 24
-11 3 -17 10 -14 15 3 6 -1 13 -10 16 -8 3 -12 11 -9 16 4 6 3 10 -2 9 -21 -4
-33 2 -33 17 0 9 5 12 12 8 7 -4 8 -3 4 5 -5 8 -12 9 -20 2 -14 -12 -109 81
-98 95 4 5 3 6 -2 2 -17 -13 -28 -9 -22 8 3 8 2 13 -3 9 -12 -7 -43 24 -36 36
4 5 -1 6 -9 3 -9 -3 -16 -2 -16 2 0 5 -16 20 -36 33 -21 15 -33 30 -30 38 4 8
1 11 -5 8 -6 -4 -22 4 -37 18 -15 14 -46 42 -70 63 -29 25 -41 42 -37 53 5 13
4 13 -6 4 -10 -10 -17 -9 -35 8 -28 26 -70 33 -78 12z m64 -853 c0 -5 -5 -10
-11 -10 -5 0 -7 5 -4 10 3 6 8 10 11 10 2 0 4 -4 4 -10z m57 -12 c2 -17 0 -19
-7 -8 -5 8 -6 18 -4 22 8 12 10 10 11 -14z m-203 0 c-5 -8 -1 -9 12 -4 14 5
16 4 7 -5 -13 -13 -37 -3 -28 12 4 5 8 9 11 9 3 0 2 -5 -2 -12z m257 -11 c-10
-9 -11 -8 -5 6 3 10 9 15 12 12 3 -3 0 -11 -7 -18z m-278 -23 c-3 -8 2 -11 15
-7 28 7 33 -8 11 -36 -10 -13 -19 -20 -19 -15 0 4 8 16 18 27 16 18 16 19 -8
16 -21 -3 -25 0 -27 26 -1 20 1 25 6 16 5 -8 7 -20 4 -27z m64 5 c0 -21 -3
-26 -9 -16 -4 9 -5 22 -2 31 9 23 11 20 11 -15z m75 -15 c-6 -12 -9 -7 -9 16
0 23 3 28 9 16 5 -9 5 -23 0 -32z m48 36 c0 -5 -8 -10 -17 -10 -15 0 -16 2 -3
10 19 12 20 12 20 0z m-79 -10 c9 13 10 13 6 0 -2 -8 -10 -15 -17 -15 -7 0
-15 7 -17 15 -4 13 -3 13 6 0 10 -13 12 -13 22 0z m99 -5 c0 -8 -4 -15 -10
-15 -5 0 -7 7 -4 15 4 8 8 15 10 15 2 0 4 -7 4 -15z m93 -1 c-3 -9 0 -20 8
-25 9 -6 10 -9 2 -9 -6 0 -15 5 -18 10 -7 11 0 40 9 40 3 0 3 -7 -1 -16z m-33
-15 c0 -5 -4 -9 -10 -9 -5 0 -10 5 -10 11 0 5 -5 7 -12 3 -7 -4 -8 -3 -4 4 7
12 36 5 36 -9z m93 -44 c-4 -13 -3 -16 5 -11 6 4 21 2 32 -4 11 -6 20 -7 20
-1 0 5 -7 11 -15 15 -17 6 -20 26 -4 26 5 0 7 -5 3 -12 -5 -7 -2 -9 8 -5 12 4
15 0 13 -19 -1 -13 5 -29 13 -36 13 -11 14 -9 7 12 -7 23 -7 23 9 7 10 -9 23
-17 29 -17 7 0 -1 13 -18 27 -16 15 -23 24 -14 21 9 -4 23 -1 30 5 11 10 11 9
1 -4 -9 -12 -7 -18 8 -29 18 -13 18 -14 -3 -31 -12 -10 -17 -18 -11 -19 5 0
16 6 23 13 11 10 14 9 18 -1 3 -6 9 -10 14 -7 5 4 6 -1 3 -9 -3 -9 -1 -16 5
-16 6 0 11 5 11 11 0 8 6 7 17 -2 15 -12 16 -12 10 4 -4 11 -3 16 4 12 6 -4 8
-13 5 -21 -6 -16 22 -33 44 -27 12 4 12 3 1 -5 -7 -5 -18 -16 -23 -23 -8 -11
-9 -10 -5 3 3 9 0 19 -8 21 -16 7 -25 -1 -25 -22 0 -13 2 -13 9 -3 6 11 9 9
14 -7 3 -15 11 -19 28 -16 13 2 30 0 38 -5 12 -7 12 -11 2 -24 -8 -10 -9 -16
-3 -16 6 0 14 5 17 10 9 15 25 2 18 -15 -3 -8 0 -15 6 -15 6 0 11 6 11 13 0 6
5 4 11 -6 5 -9 7 -23 2 -30 -11 -18 -12 -36 -2 -43 5 -3 9 0 9 5 0 6 5 11 12
11 6 0 8 -3 5 -7 -4 -3 -2 -12 4 -19 7 -8 7 -14 -1 -19 -5 -3 -10 -11 -10 -17
0 -7 5 -6 14 1 10 8 16 9 21 1 4 -6 3 -9 -2 -8 -4 2 -8 -1 -8 -7 0 -5 3 -9 7
-8 3 1 5 -5 3 -15 -1 -9 3 -21 9 -25 7 -6 5 -7 -6 -3 -12 3 -15 1 -11 -9 3 -8
9 -12 14 -9 5 3 9 2 8 -3 -1 -4 0 -12 1 -18 6 -23 4 -185 -2 -185 -3 0 -5 -8
-3 -17 1 -10 0 -22 -4 -28 -6 -10 -7 -16 -10 -36 0 -5 -7 -7 -13 -3 -10 5 -10
4 -1 -6 13 -14 -2 -70 -19 -70 -5 0 -6 -5 -2 -12 5 -7 2 -9 -8 -6 -8 4 -15 0
-15 -8 0 -7 5 -10 10 -7 5 3 7 0 5 -8 -3 -8 -10 -13 -16 -12 -6 2 -9 -4 -6
-12 4 -10 0 -15 -12 -16 -12 0 -14 -3 -6 -6 10 -4 10 -8 1 -19 -6 -8 -15 -12
-19 -9 -5 3 -12 0 -16 -6 -4 -8 -3 -9 4 -5 7 4 12 1 12 -6 0 -16 -94 -108
-110 -108 -6 0 -9 -4 -6 -8 2 -4 -5 -14 -16 -21 -18 -11 -20 -11 -15 4 4 9 3
14 -3 10 -6 -3 -10 -12 -10 -19 0 -16 -43 -46 -65 -46 -8 0 -15 -4 -15 -9 0
-10 -69 -37 -84 -33 -4 2 -13 -2 -20 -7 -6 -5 -27 -12 -46 -15 -19 -3 -48 -8
-63 -11 -21 -4 -27 -2 -21 6 5 8 3 9 -7 3 -8 -5 -25 -10 -37 -12 -17 -2 -22 1
-16 10 6 10 4 10 -9 -1 -14 -11 -17 -11 -17 0 0 11 -2 11 -8 1 -7 -10 -15 -10
-38 -2 -16 6 -30 11 -31 11 -19 -6 -43 1 -37 11 5 7 3 8 -5 3 -20 -12 -101 15
-101 34 0 12 -2 13 -8 3 -7 -10 -17 -7 -46 13 -20 14 -39 25 -42 25 -13 0 -53
38 -47 44 3 3 0 6 -8 6 -9 0 -28 14 -44 30 -25 26 -27 33 -15 41 12 8 11 9 -6
5 -15 -5 -24 0 -34 19 -7 14 -18 25 -23 25 -5 0 -4 7 3 15 11 13 10 14 -3 10
-8 -4 -18 -1 -23 6 -5 8 -3 10 7 4 14 -9 -18 34 -36 47 -5 4 -6 8 -1 8 5 0 3
7 -4 15 -7 8 -9 15 -4 15 4 0 3 5 -4 12 -9 9 -8 16 5 32 10 12 11 15 3 9 -21
-19 -35 -16 -19 4 8 9 9 14 3 10 -16 -10 -26 21 -14 43 14 27 12 37 -3 16 -12
-16 -13 -16 -15 6 -7 94 -8 168 -1 168 4 0 6 -16 5 -35 -2 -19 1 -35 5 -35 5
0 9 7 9 16 0 8 5 12 10 9 6 -4 7 -11 4 -17 -4 -7 -2 -8 5 -4 6 4 9 12 6 17 -4
5 -1 9 4 9 6 0 11 5 11 11 0 8 -5 8 -15 -1 -12 -10 -16 -9 -21 4 -10 27 2 44
30 41 28 -4 26 10 -6 33 -10 7 -16 17 -13 22 3 5 1 11 -4 14 -5 3 -7 -11 -5
-32 3 -28 1 -33 -7 -22 -10 13 -10 13 -6 -1 3 -9 0 -16 -7 -16 -7 0 -13 6 -13
14 0 7 4 13 8 13 4 0 6 8 4 18 -1 9 0 21 3 27 3 5 7 16 8 25 5 35 14 63 25 76
6 8 8 14 4 14 -4 0 -2 6 4 13 6 8 7 17 3 21 -4 4 0 6 8 4 10 -2 14 4 12 17 -2
17 -1 18 8 5 24 -34 32 -53 19 -45 -8 6 -10 4 -4 -5 5 -9 4 -11 -3 -6 -8 5
-10 1 -6 -11 4 -13 3 -15 -4 -5 -7 11 -11 10 -16 -4 -4 -10 -2 -20 3 -23 6 -4
-3 -15 -19 -26 -39 -26 -37 -43 3 -36 5 1 6 -7 2 -18 -8 -26 6 -33 30 -15 10
8 14 14 9 14 -6 0 -15 -5 -22 -12 -8 -8 -12 -8 -12 -1 0 16 25 34 36 25 4 -4
2 2 -6 12 -14 18 -13 19 4 12 19 -7 19 -6 1 14 -19 21 -8 29 13 8 9 -9 12 -9
12 0 0 7 -5 12 -11 12 -5 0 -7 4 -4 10 4 6 -1 7 -10 3 -15 -5 -15 -3 -4 16 8
11 17 21 22 21 4 0 5 -4 2 -10 -3 -5 -1 -10 5 -10 8 0 9 7 5 18 -4 9 -8 22 -9
28 -1 7 -7 19 -14 27 -10 12 -8 20 11 43 13 16 22 36 20 44 -4 13 -3 13 6 0
13 -18 20 -11 23 23 1 14 6 23 11 20 4 -2 5 -13 2 -24 -5 -14 -3 -17 9 -13 9
3 13 11 9 17 -3 6 -1 7 5 3 7 -4 12 -3 12 3 0 5 -8 14 -17 20 -15 8 -16 12 -4
23 8 7 11 9 9 3 -7 -13 17 -36 28 -27 4 4 4 1 0 -5 -4 -7 -3 -13 3 -13 6 0 15
9 21 20 9 17 8 20 -11 17 -12 -1 -24 4 -26 13 -4 13 -3 13 6 0 5 -8 13 -11 17
-7 4 3 2 13 -5 20 -9 11 -7 17 6 28 15 11 16 11 6 0 -9 -11 -7 -18 7 -33 10
-11 17 -25 14 -32 -2 -6 4 -12 15 -13 19 -2 19 -1 -1 33 -11 19 -18 37 -15 40
3 3 8 -3 11 -14 8 -25 33 -35 54 -22 14 9 13 10 -5 5 -12 -3 -24 -1 -27 4 -6
9 5 9 59 2 6 -1 6 -4 -1 -9 -8 -5 -5 -13 9 -27 l19 -20 -6 20 c-3 11 -2 26 3
34 12 19 1 53 -15 47 -8 -3 -11 0 -7 9 4 12 11 11 35 -7 29 -20 30 -22 12 -36
-13 -10 -15 -16 -6 -19 6 -3 12 -9 12 -15 0 -6 -7 -4 -17 3 -15 12 -16 12 -9
-6 12 -33 12 -37 -7 -40 -11 -2 -15 1 -10 8 4 7 -1 6 -10 -2 -9 -7 -14 -17
-11 -22 3 -5 0 -9 -6 -9 -7 0 -9 7 -6 16 4 10 2 13 -6 8 -7 -5 -8 -3 -3 6 5 9
4 11 -3 6 -8 -5 -10 -2 -6 8 3 9 2 16 -3 16 -5 0 -10 -15 -10 -32 -1 -44 -13
-79 -24 -72 -5 3 -7 10 -3 15 11 18 12 59 1 66 -6 4 -7 1 -2 -7 6 -9 4 -11 -5
-5 -9 6 -11 4 -5 -5 6 -9 4 -11 -6 -6 -9 5 -9 3 1 -6 14 -12 14 -15 -2 -30
-10 -10 -18 -13 -18 -7 0 8 -6 7 -17 -2 -10 -8 -14 -9 -10 -2 4 6 3 14 -2 17
-5 3 -11 0 -14 -7 -3 -8 3 -19 14 -25 11 -7 16 -19 13 -29 -5 -15 -4 -15 4 -3
8 10 8 18 0 27 -7 9 -7 13 1 13 6 0 16 -9 23 -20 7 -11 17 -20 22 -20 5 0 1 9
-9 20 -19 21 -8 29 13 8 8 -8 14 -5 21 14 5 15 15 29 20 33 15 9 14 -8 -1 -25
-7 -8 -9 -12 -4 -8 5 4 23 0 40 -8 24 -11 27 -12 14 -1 -10 8 -15 17 -11 21 4
4 -1 4 -12 0 -17 -7 -16 -4 5 19 l25 26 22 -22 c36 -36 53 -48 53 -39 0 6 -10
17 -23 25 -23 15 -33 47 -15 47 5 0 7 4 4 9 -3 5 8 22 24 40 17 17 30 27 30
22 0 -5 -7 -14 -15 -21 -9 -7 -13 -15 -10 -18 10 -11 44 30 38 46 -5 14 -3 15
7 5 11 -10 11 -15 0 -28 -9 -11 -9 -15 -1 -15 6 0 14 7 18 16 4 12 7 13 14 3
4 -8 11 -10 15 -6 4 3 1 13 -5 21 -7 8 -11 23 -8 33 3 13 5 12 6 -6 1 -21 3
-22 18 -10 14 12 16 12 8 -1 -11 -18 -14 -50 -5 -50 3 0 15 6 25 14 17 12 22
12 39 0 21 -15 31 -44 14 -44 -6 0 -7 7 -4 16 3 8 2 13 -3 10 -5 -3 -12 1 -15
10 -6 16 -26 11 -26 -7 0 -6 4 -8 9 -4 6 3 15 -4 21 -16 10 -17 9 -20 -2 -16
-7 2 -12 9 -11 15 2 6 -6 9 -17 7 -12 -2 -18 0 -15 5 3 6 -1 7 -10 3 -12 -4
-13 -8 -5 -13 7 -4 -1 -7 -19 -6 -17 0 -31 4 -31 8 0 5 -5 8 -11 8 -5 0 -7 -5
-3 -12 5 -7 3 -8 -7 -3 -19 12 -49 14 -55 3 -3 -4 9 -8 26 -8 17 0 29 -4 26
-9 -3 -4 -16 -7 -29 -6 -28 3 -31 -17 -5 -34 10 -6 18 -7 18 -2 0 5 -6 11 -12
14 -7 2 -10 8 -5 12 4 5 17 -1 30 -13 13 -12 30 -22 39 -22 17 0 41 24 33 32
-3 3 2 11 10 18 14 11 17 10 22 -8 3 -12 9 -22 14 -22 5 0 5 8 2 18 -6 15 -5
15 10 3 12 -9 17 -10 17 -2 0 7 4 10 10 6 12 -7 1 -35 -13 -32 -6 1 -12 -7
-14 -18 l-3 -20 9 20 c5 11 10 16 11 10 0 -5 7 -2 15 8 7 11 11 26 7 35 -5 15
-3 15 10 4 11 -9 18 -10 23 -2 7 12 25 4 25 -11 0 -6 -4 -7 -10 -4 -6 4 -7 -1
-3 -12 6 -16 5 -16 -10 -4 -9 7 -17 9 -17 3 0 -5 6 -12 14 -15 17 -7 51 39 35
47 -5 2 -4 3 3 2 7 -2 13 -13 13 -26 0 -17 6 -24 22 -25 16 -1 20 3 18 17 -4
20 11 25 18 6 2 -7 2 -2 0 12 -4 24 -4 24 17 5 12 -11 17 -21 11 -23 -6 -2
-11 -8 -11 -14 0 -6 6 -6 15 2 8 7 12 16 9 21 -3 5 0 9 5 9 6 0 11 -6 11 -14
0 -8 4 -18 10 -21 6 -4 9 3 7 16 -1 12 3 24 10 26 6 2 10 -4 9 -14 -2 -10 -1
-12 1 -4 4 12 6 12 14 0 7 -11 9 -11 9 4 0 9 3 16 8 16 29 -5 36 10 18 39 -5
9 -11 10 -20 3 -7 -6 -17 -7 -21 -3 -5 4 -5 1 -1 -5 5 -9 2 -11 -11 -7 -15 5
-16 4 -3 -5 12 -9 7 -10 -20 -6 -27 4 -32 3 -20 -6 13 -9 13 -10 0 -6 -13 3
-15 11 -11 48 0 6 7 9 15 6 8 -3 17 1 20 10 5 11 2 14 -9 9 -9 -3 -13 -2 -10
4 6 9 -14 14 -42 11 -6 -1 -14 3 -18 9 -4 6 1 8 12 4 13 -4 12 -1 -4 12 -24
17 -30 34 -12 34 5 0 8 -4 5 -8 -3 -5 13 -19 34 -31 22 -12 40 -17 40 -11 0 6
-11 16 -25 22 -21 9 -23 13 -11 20 8 5 13 15 10 23 -4 8 -11 12 -17 8 -6 -3
-7 -1 -3 6 12 19 58 -32 49 -54z m30 48 c-3 -7 -8 -13 -12 -13 -4 0 -8 6 -8
13 0 8 6 14 13 14 7 0 10 -6 7 -14z m-436 1 c-3 -3 -12 -4 -19 -1 -8 3 -5 6 6
6 11 1 17 -2 13 -5z m-35 -22 c-1 -7 3 -23 10 -35 10 -20 10 -21 -6 -8 -10 8
-15 22 -13 32 3 12 -1 17 -14 16 -11 -1 -19 -6 -19 -11 0 -5 -3 -7 -6 -3 -11
11 5 24 28 23 13 -1 22 -7 20 -14z m61 5 c3 -8 2 -20 -3 -26 -5 -9 -7 -4 -7
13 0 29 2 32 10 13z m205 4 c11 -7 10 -9 -3 -14 -11 -5 -14 -3 -9 5 5 8 2 9
-10 5 -10 -4 -15 -3 -11 3 7 12 16 12 33 1z m247 -9 c-3 -3 -11 0 -18 7 -9 10
-8 11 6 5 10 -3 15 -9 12 -12z m-349 -14 c-3 -23 -36 -39 -36 -19 0 6 7 8 15
4 9 -3 15 -2 14 3 -2 15 1 34 6 34 3 0 3 -10 1 -22z m36 -20 c-6 -6 -12 -6
-17 3 -6 8 -4 10 5 4 9 -5 10 -1 6 16 -6 21 -6 22 5 6 7 -13 8 -22 1 -29z
m115 36 c-3 -3 -12 -4 -19 -1 -8 3 -5 6 6 6 11 1 17 -2 13 -5z m-380 -26 c-3
-8 -6 -5 -6 6 -1 11 2 17 5 13 3 -3 4 -12 1 -19z m97 7 c-4 -8 -8 -15 -10 -15
-2 0 -4 7 -4 15 0 8 4 15 10 15 5 0 7 -7 4 -15z m301 5 c-3 -5 -12 -10 -18
-10 -7 0 -6 4 3 10 19 12 23 12 15 0z m-404 -41 c5 -11 14 -17 20 -14 5 4 9 1
9 -4 0 -14 -17 -14 -25 -1 -4 6 -16 8 -28 4 -22 -6 -22 -6 -2 10 11 8 15 16 8
16 -6 0 -18 -7 -27 -15 -13 -14 -15 -13 -13 4 1 12 6 17 16 13 9 -3 12 -1 7 6
-5 8 -2 10 9 6 8 -4 20 -15 26 -25z m339 9 c0 -6 -8 -4 -17 3 -15 12 -16 12
-10 -4 4 -10 3 -16 -2 -13 -5 3 -11 -1 -15 -9 -6 -17 -26 -20 -26 -4 0 5 5 7
12 3 8 -5 9 -2 5 10 -4 9 -3 15 2 12 5 -3 11 1 15 9 6 16 36 10 36 -7z m45 4
c-2 -3 2 -14 10 -24 7 -11 11 -28 7 -37 -5 -14 -4 -14 11 -2 15 12 17 12 11
-4 -6 -15 -5 -16 15 -4 11 8 21 19 21 26 0 7 5 13 10 13 7 0 7 -6 0 -20 -6
-11 -16 -20 -23 -20 -7 0 -8 -3 -2 -8 6 -4 17 -16 25 -27 14 -19 14 -20 -6 -2
-20 16 -21 16 -37 -1 -10 -10 -15 -21 -12 -24 3 -3 -1 -8 -10 -12 -12 -4 -15
-1 -10 13 10 31 -28 49 -61 28 -15 -9 -29 12 -29 43 0 15 6 25 15 25 18 0 51
26 45 35 -2 4 2 7 10 7 8 0 13 -2 10 -5z m35 -2 c0 -5 -4 -10 -10 -10 -5 0
-10 5 -10 10 0 6 5 10 10 10 6 0 10 -4 10 -10z m-300 -10 c0 -5 -4 -10 -10
-10 -5 0 -10 5 -10 10 0 6 5 10 10 10 6 0 10 -4 10 -10z m140 -11 c0 -6 -4 -7
-10 -4 -5 3 -10 1 -10 -4 0 -6 -5 -11 -10 -11 -6 0 -5 8 2 19 12 19 28 19 28
0z m420 1 c6 -11 8 -20 6 -20 -3 0 -10 9 -16 20 -6 11 -8 20 -6 20 3 0 10 -9
16 -20z m-240 -15 c11 -13 10 -14 -4 -9 -9 3 -16 10 -16 15 0 13 6 11 20 -6z
m286 3 c4 -7 3 -8 -4 -4 -7 4 -12 2 -12 -5 0 -7 -3 -10 -6 -6 -6 5 3 27 11 27
2 0 7 -5 11 -12z m-634 -20 c-7 -7 -12 -8 -12 -2 0 14 12 26 19 19 2 -3 -1
-11 -7 -17z m492 -41 c-2 -7 -14 -13 -25 -14 -20 -2 -20 -1 -4 17 19 21 38 18
29 -3z m193 7 c-3 -3 -12 -4 -19 -1 -8 3 -5 6 6 6 11 1 17 -2 13 -5z m-622
-35 c-6 -19 -5 -20 8 -8 8 8 13 17 11 20 -2 3 3 6 11 6 20 0 12 -41 -9 -45
-26 -5 -49 17 -35 34 16 20 21 17 14 -7z m649 -7 c2 -4 -4 -9 -15 -9 -11 -1
-17 2 -14 8 7 11 22 12 29 1z m-1067 -231 c-1 -12 -8 -19 -18 -18 -14 1 -15 5
-8 19 13 24 28 23 26 -1z m-27 -86 c7 -9 8 -15 2 -15 -5 0 -12 7 -16 15 -3 8
-4 15 -2 15 2 0 9 -7 16 -15z m-1393 -1767 c-3 -8 -6 -5 -6 6 -1 11 2 17 5 13
3 -3 4 -12 1 -19z m3 -488 c0 -5 -2 -10 -4 -10 -3 0 -8 5 -11 10 -3 6 -1 10 4
10 6 0 11 -4 11 -10z m4022 -122 c-6 -6 -15 -8 -19 -4 -4 4 -1 11 7 16 19 12
27 3 12 -12z m-189 -385 c-3 -7 0 -13 7 -13 10 0 10 -3 0 -15 -14 -16 -52 -14
-58 3 -2 7 1 12 8 12 6 0 8 5 4 13 -5 7 0 6 11 -3 17 -13 18 -13 13 1 -4 9 -1
16 7 16 7 0 11 -6 8 -14z m-3570 -87 c4 -10 1 -13 -9 -9 -15 6 -19 23 -5 23 5
0 11 -7 14 -14z m1554 -2 c-3 -3 -12 -4 -19 -1 -8 3 -5 6 6 6 11 1 17 -2 13
-5z m397 -2 c2 -4 -4 -8 -14 -8 -10 0 -16 4 -14 8 3 4 9 8 14 8 5 0 11 -4 14
-8z m-1830 -75 c2 -24 0 -25 -16 -11 -9 9 -14 22 -11 30 9 23 26 11 27 -19z
m1154 -2 c10 18 11 17 8 -8 -3 -29 -26 -63 -26 -38 0 7 -5 9 -12 5 -7 -5 -8
-3 -2 7 5 8 8 23 6 34 -2 20 -1 20 7 0 8 -19 8 -19 19 0z m960 -20 c0 -26 -12
-33 -23 -15 -4 6 -12 7 -18 3 -7 -3 -3 3 7 15 25 29 34 28 34 -3z m-998 6 c0
-3 -4 -12 -9 -19 -6 -11 -9 -9 -13 5 -3 12 0 20 8 20 8 0 14 -3 14 -6z m-1043
-30 c-1 -15 -4 -17 -14 -9 -7 5 -10 14 -7 19 10 16 23 9 21 -10z m941 3 c-13
-13 -20 -14 -34 -5 -17 11 -17 11 3 6 12 -3 24 -1 28 5 3 5 9 10 13 10 3 0 -1
-7 -10 -16z m52 -29 c-7 -8 -17 -15 -22 -15 -6 0 -5 7 2 15 7 8 17 15 22 15 6
0 5 -7 -2 -15z m2020 -5 c6 -11 7 -20 2 -20 -6 0 -12 9 -15 20 -3 11 -3 20 -1
20 2 0 8 -9 14 -20z m-2880 0 c0 -5 -5 -10 -11 -10 -5 0 -7 5 -4 10 3 6 8 10
11 10 2 0 4 -4 4 -10z m729 -12 l14 -23 -24 20 c-13 11 -26 21 -28 22 -2 2 2
3 10 3 8 0 20 -10 28 -22z m1386 5 c5 -14 4 -15 -6 -6 -10 10 -18 8 -36 -9
-27 -25 -31 -17 -5 11 22 25 38 26 47 4z m-2050 -3 c3 -6 -1 -7 -9 -4 -18 7
-21 14 -7 14 6 0 13 -4 16 -10z m2725 0 c8 -5 12 -11 10 -14 -3 -2 -14 2 -24
10 -22 15 -10 19 14 4z m-2668 -34 c6 4 5 9 -3 15 -10 6 -8 8 7 7 22 -2 25
-13 11 -35 -4 -6 -1 -13 5 -16 7 -2 -2 -4 -20 -5 -35 -1 -57 24 -46 53 6 14 8
13 21 -5 8 -11 19 -17 25 -14z m2173 -5 c-3 -6 -11 -8 -17 -5 -7 5 -9 1 -5 -9
3 -10 2 -17 -3 -17 -18 0 -22 22 -9 46 11 21 15 23 27 10 8 -8 11 -19 7 -25z
m-2280 18 c2 -3 -8 -5 -25 -5 -16 0 -27 3 -24 8 5 8 39 6 49 -3z m2309 -6 c-5
-15 -3 -15 10 1 9 11 16 15 16 10 0 -12 -21 -34 -32 -34 -4 0 -8 9 -8 20 0 11
4 20 10 20 5 0 7 -8 4 -17z m513 -7 c0 -14 -32 -15 -44 -1 -5 4 -2 5 5 1 7 -4
12 -1 12 8 0 9 6 13 13 10 8 -3 14 -11 14 -18z m-2595 2 c-17 -17 -15 -33 3
-18 8 7 15 9 15 4 0 -4 6 0 13 10 12 16 13 16 14 -4 1 -11 -2 -18 -6 -15 -5 2
-14 -2 -21 -10 -9 -11 -16 -12 -30 -2 -18 10 -18 13 -3 29 9 10 19 18 22 18 3
0 0 -5 -7 -12z m2232 0 c-3 -5 -10 -6 -15 -3 -5 4 -14 -5 -21 -19 -12 -28 -28
-35 -24 -11 1 8 10 21 20 28 21 15 48 18 40 5z m127 -19 c-10 -19 -18 -24 -23
-16 -4 7 -1 17 7 23 8 6 13 13 10 16 -3 2 1 5 9 5 10 0 10 -6 -3 -28z"/>
<path d="M2715 3840 c-3 -5 1 -10 9 -10 9 0 16 5 16 10 0 6 -4 10 -9 10 -6 0
-13 -4 -16 -10z"/>
<path d="M2750 3795 c0 -8 5 -15 11 -15 5 0 7 5 3 12 -5 7 -3 8 6 3 11 -6 10
-10 -2 -19 -8 -6 -20 -20 -26 -31 -6 -11 -12 -14 -12 -7 0 7 -5 10 -11 6 -8
-4 -7 -9 2 -14 7 -5 22 -2 34 6 12 8 25 11 28 8 4 -4 9 1 13 10 6 15 8 14 23
-6 9 -13 15 -26 13 -30 -4 -13 16 -9 21 5 4 9 6 9 6 -1 1 -10 6 -10 24 -1 16
8 19 8 11 0 -6 -6 -20 -13 -32 -16 -24 -4 -73 -35 -56 -35 5 0 15 5 21 11 8 8
13 8 17 0 4 -6 3 -11 -3 -11 -6 0 -15 -10 -22 -21 -9 -17 -8 -20 2 -14 9 6 11
3 6 -9 -4 -10 -3 -15 4 -11 5 4 7 16 3 27 -4 14 -2 18 5 14 6 -4 11 -2 11 4 0
6 5 8 10 5 8 -5 7 -11 -1 -21 -9 -11 -9 -14 0 -14 7 0 9 -5 5 -12 -4 -7 -3 -8
4 -4 6 4 9 12 6 20 -3 7 2 13 11 13 9 0 14 -6 11 -14 -3 -8 1 -16 9 -19 8 -4
13 -9 11 -13 -3 -4 5 -8 17 -8 20 -2 20 -1 -4 15 -23 16 -29 52 -9 52 5 0 7
-6 4 -13 -3 -8 2 -20 11 -27 12 -10 18 -10 30 0 19 16 19 6 0 -24 -13 -20 -13
-23 0 -23 8 0 12 4 9 9 -4 5 4 20 16 33 14 15 18 25 11 30 -6 3 -11 1 -11 -5
0 -6 -14 3 -31 21 -28 28 -29 32 -13 43 12 9 14 15 6 20 -19 11 -31 -2 -26
-29 2 -14 0 -25 -6 -25 -6 0 -9 4 -5 9 3 5 1 12 -5 16 -6 4 -8 10 -5 15 8 14
-14 52 -26 45 -5 -4 -7 -11 -4 -16 9 -13 -9 -11 -22 2 -6 6 -9 19 -7 28 4 14
4 14 -7 1 -10 -14 -15 -12 -41 12 -34 31 -48 35 -48 13z m43 -30 c-3 -9 -8
-14 -10 -11 -3 3 -2 9 2 15 9 16 15 13 8 -4z m108 -74 c3 0 6 -8 6 -16 0 -13
-4 -12 -21 2 -12 10 -15 11 -8 3 20 -23 14 -35 -8 -15 -11 10 -20 21 -20 25 0
6 26 7 51 1z m69 -53 c0 -11 -15 -17 -26 -10 -6 4 -11 14 -11 24 0 13 4 14 19
5 10 -7 18 -15 18 -19z"/>
<path d="M2280 3790 c0 -5 5 -10 11 -10 5 0 7 5 4 10 -3 6 -8 10 -11 10 -2 0
-4 -4 -4 -10z"/>
<path d="M2395 3741 c-3 -5 2 -11 10 -15 8 -3 17 -1 20 3 3 5 -2 11 -10 15 -8
3 -17 1 -20 -3z"/>
<path d="M2220 3720 c6 -11 15 -18 21 -14 6 4 6 11 -2 20 -17 21 -31 17 -19
-6z"/>
<path d="M2095 3680 c-27 -16 -54 -31 -60 -33 -5 -2 -7 -8 -3 -12 4 -4 14 -2
22 4 12 10 14 9 11 -6 -3 -18 -7 -19 -37 -8 -30 12 -38 -26 -13 -62 20 -28 24
-30 31 -15 4 9 8 25 8 34 1 9 4 20 9 24 7 7 11 -8 8 -36 -1 -8 5 -4 13 10 12
21 12 27 1 40 -7 8 -14 19 -15 24 -2 13 22 26 35 18 16 -10 34 -11 40 -2 3 5
1 12 -5 15 -8 5 -7 11 1 21 15 18 13 18 -46 -16z m41 -12 c3 -4 -1 -5 -10 -4
-8 1 -18 5 -22 8 -3 4 1 5 10 4 8 -1 18 -5 22 -8z m-98 -69 c-10 -7 -10 -9 2
-9 13 0 13 -1 0 -10 -11 -7 -11 -10 -2 -10 7 0 10 -5 7 -10 -4 -6 -14 -1 -25
12 -20 25 -10 51 17 41 12 -5 12 -7 1 -14z"/>
<path d="M2015 3601 c-3 -5 -2 -12 3 -15 5 -3 9 1 9 9 0 17 -3 19 -12 6z"/>
<path d="M2260 3660 c0 -5 5 -10 11 -10 5 0 7 5 4 10 -3 6 -8 10 -11 10 -2 0
-4 -4 -4 -10z"/>
<path d="M2442 3658 c-7 -7 -12 -17 -12 -22 0 -6 5 -3 11 7 10 18 11 18 25 0
14 -17 14 -16 4 5 -13 26 -12 26 -28 10z"/>
<path d="M2777 3653 c-10 -10 -8 -23 4 -23 5 0 8 4 4 9 -3 5 3 12 12 14 14 4
15 5 2 6 -9 0 -19 -2 -22 -6z"/>
<path d="M2356 3642 c-3 -5 1 -9 9 -9 8 0 12 4 9 9 -3 4 -7 8 -9 8 -2 0 -6 -4
-9 -8z"/>
<path d="M2519 3633 c-13 -17 -13 -17 6 -3 11 8 22 16 24 17 2 2 0 3 -6 3 -6
0 -17 -8 -24 -17z"/>
<path d="M2593 3643 c4 -3 2 -12 -5 -20 -8 -11 -7 -12 6 -7 18 7 22 34 4 34
-6 0 -8 -3 -5 -7z"/>
<path d="M2705 3640 c-3 -6 1 -7 9 -4 18 7 21 14 7 14 -6 0 -13 -4 -16 -10z"/>
<path d="M3013 3643 c4 -3 0 -17 -9 -31 -13 -20 -14 -26 -3 -33 10 -6 11 -9 2
-9 -7 0 -13 -4 -13 -8 0 -5 7 -9 15 -9 8 0 12 4 9 9 -3 4 -1 8 5 8 8 0 25 -36
23 -50 -1 -12 22 -30 36 -28 8 2 17 -3 19 -10 3 -8 -2 -10 -14 -6 -11 4 -14 3
-7 -3 18 -13 36 -53 24 -53 -5 0 -10 -5 -10 -11 0 -8 4 -8 14 0 9 8 16 8 20 2
4 -5 -3 -12 -14 -16 -18 -6 -19 -8 -6 -27 8 -11 12 -26 10 -33 -5 -11 36 -45
53 -45 4 0 1 5 -7 10 -8 5 -10 10 -4 10 12 0 13 49 1 68 -5 7 -12 10 -16 7 -5
-2 -8 7 -8 20 0 14 4 25 10 25 6 0 0 11 -13 25 -18 19 -21 27 -11 39 8 10 9
16 1 21 -5 3 -10 3 -10 -1 0 -3 -6 -1 -14 5 -14 12 -16 35 -3 47 12 13 7 22
-10 20 -12 -1 -17 6 -16 19 1 19 1 19 -11 2 -11 -15 -15 -15 -25 -3 -8 10 -9
16 -1 21 12 7 4 25 -12 25 -6 0 -8 -3 -5 -7z m37 -58 c0 4 6 2 14 -4 8 -7 13
-20 11 -29 -3 -21 24 -54 38 -45 6 3 7 1 3 -6 -4 -6 -13 -8 -19 -4 -11 7 -16
9 -35 12 -5 0 -9 8 -10 16 -1 8 -3 21 -4 29 -1 8 -12 19 -25 25 -13 6 -21 16
-18 22 5 7 14 4 26 -7 10 -9 19 -14 19 -9z m76 -153 c-4 -3 -11 0 -16 8 -15
24 -11 33 6 15 9 -9 13 -19 10 -23z m19 -57 c8 0 11 -27 6 -57 -1 -10 -31 2
-31 13 0 4 8 6 18 3 16 -5 16 -5 0 9 -10 8 -15 17 -11 20 3 4 1 7 -5 7 -7 0
-12 5 -12 11 0 6 5 7 13 2 6 -4 17 -8 22 -8z"/>
<path d="M3054 3566 c1 -8 5 -18 8 -22 4 -3 5 1 4 10 -1 8 -5 18 -8 22 -4 3
-5 -1 -4 -10z"/>
<path d="M2270 3636 c0 -2 9 -6 20 -9 11 -3 18 -1 14 4 -5 9 -34 13 -34 5z"/>
<path d="M2627 3626 c-4 -10 1 -12 14 -9 23 6 24 9 5 16 -8 3 -17 0 -19 -7z"/>
<path d="M2547 3619 c7 -7 15 -10 18 -7 3 3 -2 9 -12 12 -14 6 -15 5 -6 -5z"/>
<path d="M2496 3607 c3 -10 9 -15 12 -12 3 3 0 11 -7 18 -10 9 -11 8 -5 -6z"/>
<path d="M2304 3602 c4 -3 14 -7 22 -8 9 -1 13 0 10 4 -4 3 -14 7 -22 8 -9 1
-13 0 -10 -4z"/>
<path d="M2559 3593 c-1 -5 -1 -11 0 -16 1 -4 -13 -5 -31 -2 -25 5 -29 3 -22
-8 5 -7 1 -4 -8 6 -17 18 -23 15 -19 -7 1 -5 -6 -3 -15 5 -16 12 -17 12 -11
-4 5 -13 3 -16 -6 -10 -6 4 -24 8 -38 9 -22 1 -26 -3 -23 -20 3 -12 1 -15 -2
-8 -5 10 -9 10 -20 1 -7 -6 -20 -9 -29 -6 -8 4 -17 1 -21 -5 -4 -7 -3 -8 4 -4
7 4 13 1 13 -6 1 -7 2 -17 4 -23 1 -5 3 -14 3 -19 1 -5 14 1 28 15 14 13 24
18 22 10 -2 -7 3 -16 11 -19 10 -3 12 0 7 14 -6 15 -5 16 5 7 9 -9 16 -10 26
-2 9 8 13 8 13 0 0 -6 5 -11 11 -11 5 0 8 3 5 8 -2 4 18 8 45 9 34 0 47 -3 42
-11 -4 -6 1 -5 10 3 11 9 17 10 17 2 0 -6 8 -11 18 -11 14 0 15 2 2 10 -11 7
-7 8 15 6 17 -2 29 -9 28 -15 -2 -5 4 -8 12 -5 8 4 12 11 9 16 -9 13 39 -12
48 -26 5 -8 8 -7 8 2 0 6 5 12 11 12 5 0 7 -4 4 -10 -3 -5 -4 -10 -1 -10 3 0
10 9 16 20 6 11 7 20 3 19 -19 -3 -34 2 -29 10 6 9 -34 28 -69 33 -11 2 -23 7
-27 12 -3 5 -19 9 -35 10 -17 1 -27 6 -25 14 1 6 0 12 -3 12 -3 0 -6 -3 -6 -7z"/>
<path d="M2180 3580 c-9 -6 -10 -10 -3 -10 6 0 15 5 18 10 8 12 4 12 -15 0z"/>
<path d="M2273 3565 c0 -8 4 -12 9 -9 5 3 6 10 3 15 -9 13 -12 11 -12 -6z"/>
<path d="M2895 3569 c-4 -6 -5 -12 -2 -15 2 -3 7 2 10 11 7 17 1 20 -8 4z"/>
<path d="M1956 3549 c-11 -11 -15 -19 -9 -19 12 0 38 28 32 34 -2 2 -13 -5
-23 -15z"/>
<path d="M2090 3558 c0 -6 3 -8 7 -5 3 4 13 1 22 -6 14 -11 14 -10 2 6 -15 20
-31 22 -31 5z"/>
<path d="M2820 3566 c0 -2 8 -10 18 -17 15 -13 16 -12 3 4 -13 16 -21 21 -21
13z"/>
<path d="M2053 3534 c-3 -8 -3 -18 1 -21 3 -4 6 1 6 10 0 10 5 14 15 11 8 -4
15 -4 15 -1 0 14 -31 15 -37 1z"/>
<path d="M2210 3540 c0 -5 5 -10 11 -10 5 0 7 5 4 10 -3 6 -8 10 -11 10 -2 0
-4 -4 -4 -10z"/>
<path d="M1935 3510 c-3 -5 -8 -20 -10 -32 -4 -16 -2 -19 7 -10 6 6 12 21 13
32 2 22 -1 25 -10 10z"/>
<path d="M2213 3505 c0 -8 4 -12 9 -9 5 3 6 10 3 15 -9 13 -12 11 -12 -6z"/>
<path d="M2130 3500 c0 -5 5 -10 11 -10 5 0 7 5 4 10 -3 6 -8 10 -11 10 -2 0
-4 -4 -4 -10z"/>
<path d="M2295 3491 c1 -8 7 -17 13 -19 7 -2 9 -9 6 -14 -5 -7 -2 -8 6 -3 10
6 9 11 -4 21 -16 11 -16 13 1 23 17 9 16 10 -3 8 -13 0 -21 -7 -19 -16z"/>
<path d="M2775 3500 c-3 -5 -1 -10 4 -10 6 0 11 5 11 10 0 6 -2 10 -4 10 -3 0
-8 -4 -11 -10z"/>
<path d="M2050 3496 c0 -2 8 -10 18 -17 15 -13 16 -12 3 4 -13 16 -21 21 -21
13z"/>
<path d="M2666 3482 c-2 -4 4 -8 14 -8 10 0 16 4 14 8 -3 4 -9 8 -14 8 -5 0
-11 -4 -14 -8z"/>
<path d="M2870 3480 c0 -5 5 -10 10 -10 6 0 10 5 10 10 0 6 -4 10 -10 10 -5 0
-10 -4 -10 -10z"/>
<path d="M2916 3482 c-3 -5 1 -9 9 -9 8 0 12 4 9 9 -3 4 -7 8 -9 8 -2 0 -6 -4
-9 -8z"/>
<path d="M2990 3476 c0 -2 8 -10 18 -17 15 -13 16 -12 3 4 -13 16 -21 21 -21
13z"/>
<path d="M3045 3462 c-15 -10 -16 -29 -2 -29 7 0 13 9 13 19 0 10 0 18 -1 18
0 0 -4 -4 -10 -8z"/>
<path d="M3073 3434 c0 -17 2 -22 7 -13 5 6 6 18 3 26 -8 19 -10 16 -10 -13z"/>
<path d="M2235 3429 c-4 -6 -5 -12 -2 -15 2 -3 7 2 10 11 7 17 1 20 -8 4z"/>
<path d="M2086 3422 c-3 -5 1 -9 9 -9 8 0 12 4 9 9 -3 4 -7 8 -9 8 -2 0 -6 -4
-9 -8z"/>
<path d="M2895 3419 c-3 -4 2 -6 10 -5 21 3 28 13 10 13 -9 0 -18 -4 -20 -8z"/>
<path d="M2029 3403 c-13 -16 -12 -17 4 -4 9 7 17 15 17 17 0 8 -8 3 -21 -13z"/>
<path d="M2126 3402 c-3 -5 1 -9 9 -9 8 0 12 4 9 9 -3 4 -7 8 -9 8 -2 0 -6 -4
-9 -8z"/>
<path d="M3014 3395 c3 -23 12 -26 13 -5 1 11 -2 20 -7 20 -4 0 -7 -7 -6 -15z"/>
<path d="M1987 3388 c-12 -10 -14 -17 -6 -28 9 -13 10 -13 6 0 -2 8 3 20 12
27 9 7 13 13 10 13 -3 0 -13 -6 -22 -12z"/>
<path d="M3060 3376 c0 -2 7 -7 16 -10 8 -3 12 -2 9 4 -6 10 -25 14 -25 6z"/>
<path d="M2106 3362 c-3 -5 1 -9 9 -9 8 0 12 4 9 9 -3 4 -7 8 -9 8 -2 0 -6 -4
-9 -8z"/>
<path d="M2010 3339 c0 -5 5 -7 10 -4 6 3 10 8 10 11 0 2 -4 4 -10 4 -5 0 -10
-5 -10 -11z"/>
<path d="M3016 3338 c3 -4 11 -5 19 -1 21 7 19 12 -4 10 -11 0 -18 -5 -15 -9z"/>
<path d="M3070 3334 c6 -6 7 -14 3 -17 -3 -4 -2 -7 4 -7 6 0 13 8 15 18 4 12
-1 18 -13 18 -12 0 -15 -4 -9 -12z"/>
<path d="M1940 3325 c0 -7 30 -13 34 -7 3 4 -4 9 -15 9 -10 1 -19 0 -19 -2z"/>
<path d="M1976 3293 c-6 -14 -5 -15 5 -6 7 7 10 15 7 18 -3 3 -9 -2 -12 -12z"/>
<path d="M3115 3279 c-4 -6 -1 -10 6 -8 27 3 40 -1 34 -11 -4 -6 -10 -8 -14
-6 -3 3 -7 -4 -7 -14 0 -10 3 -17 7 -14 4 2 9 -1 11 -8 3 -9 6 -9 12 0 4 7 2
12 -3 12 -6 0 -11 5 -11 11 0 5 4 8 9 5 5 -4 8 1 7 10 -4 27 -39 43 -51 23z"/>
<path d="M3076 3258 c3 -5 10 -6 15 -3 13 9 11 12 -6 12 -8 0 -12 -4 -9 -9z"/>
<path d="M1910 3243 c0 -5 5 -15 10 -23 7 -12 9 -10 7 8 -1 19 -17 33 -17 15z"/>
<path d="M1890 3221 c0 -6 5 -13 10 -16 6 -4 7 -12 4 -18 -4 -7 -4 -9 1 -5 4
4 15 2 23 -5 9 -6 5 3 -8 21 -25 34 -30 38 -30 23z"/>
<path d="M3142 3171 c-11 -7 -11 -9 0 -14 9 -3 15 1 15 9 0 8 -1 14 -1 14 -1
0 -7 -4 -14 -9z"/>
<path d="M3103 3137 c-4 -6 -1 -7 7 -2 10 6 12 4 7 -8 -9 -23 0 -22 12 1 8 14
6 19 -5 19 -8 0 -18 -5 -21 -10z"/>
<path d="M1916 3123 c-4 -9 -4 -14 0 -10 4 4 14 1 23 -6 14 -11 15 -10 1 8 -8
11 -15 21 -16 23 -1 2 -5 -5 -8 -15z"/>
<path d="M1954 3068 l-19 -23 23 19 c21 18 27 26 19 26 -2 0 -12 -10 -23 -22z"/>
<path d="M1952 3034 c-7 -8 -8 -14 -3 -14 10 0 25 19 20 25 -2 1 -10 -3 -17
-11z"/>
<path d="M1970 2996 c0 -8 4 -17 9 -20 5 -4 7 3 4 14 -6 23 -13 26 -13 6z"/>
<path d="M3013 2875 c0 -8 4 -12 9 -9 4 3 8 9 8 15 0 5 -4 9 -8 9 -5 0 -9 -7
-9 -15z"/>
<path d="M2980 2860 c-9 -6 -10 -10 -3 -10 6 0 15 5 18 10 8 12 4 12 -15 0z"/>
<path d="M2155 2771 c-6 -11 13 -26 22 -17 4 3 1 6 -6 6 -7 0 -9 5 -6 10 3 6
4 10 1 10 -3 0 -7 -4 -11 -9z"/>
<path d="M2750 2700 c0 -5 5 -10 11 -10 5 0 7 5 4 10 -3 6 -8 10 -11 10 -2 0
-4 -4 -4 -10z"/>
<path d="M2447 2659 c7 -7 15 -10 18 -7 3 3 -2 9 -12 12 -14 6 -15 5 -6 -5z"/>
<path d="M2596 2662 c-3 -5 1 -9 9 -9 8 0 12 4 9 9 -3 4 -7 8 -9 8 -2 0 -6 -4
-9 -8z"/>
<path d="M2586 3781 c-10 -11 -24 -17 -32 -14 -8 3 -14 1 -14 -5 0 -17 29 -22
44 -7 20 21 28 19 14 -4 -6 -10 -19 -18 -27 -16 -21 3 -33 -4 -25 -16 3 -5 11
-6 17 -2 22 14 41 12 60 -4 16 -15 19 -15 33 -1 13 13 13 15 -1 16 -8 1 -22 3
-30 4 -17 2 -19 10 -6 24 6 5 5 16 -3 26 -12 17 -14 17 -30 -1z m59 -69 c-3
-3 -11 0 -18 7 -9 10 -8 11 6 5 10 -3 15 -9 12 -12z"/>
<path d="M4345 579 c-3 -4 2 -6 10 -5 21 3 28 13 10 13 -9 0 -18 -4 -20 -8z"/>
<path d="M3025 421 c-3 -5 -2 -12 3 -15 5 -3 9 1 9 9 0 17 -3 19 -12 6z"/>
<path d="M1220 322 c0 -6 9 -16 19 -21 14 -8 22 -7 32 7 11 14 11 15 -1 5 -11
-10 -17 -9 -32 4 -10 9 -18 11 -18 5z"/>
<path d="M3406 322 c-3 -5 1 -9 9 -9 8 0 15 4 15 9 0 4 -4 8 -9 8 -6 0 -12 -4
-15 -8z"/>
<path d="M2770 4641 c0 -6 4 -13 10 -16 6 -3 7 1 4 9 -7 18 -14 21 -14 7z"/>
<path d="M2766 4602 c-3 -5 1 -9 9 -9 8 0 12 4 9 9 -3 4 -7 8 -9 8 -2 0 -6 -4
-9 -8z"/>
<path d="M2175 4519 c-3 -4 2 -6 10 -5 21 3 28 13 10 13 -9 0 -18 -4 -20 -8z"/>
<path d="M2097 4431 c-4 -17 -3 -21 5 -13 5 5 8 16 6 23 -3 8 -7 3 -11 -10z"/>
<path d="M2055 4400 c-3 -5 -1 -10 4 -10 6 0 11 5 11 10 0 6 -2 10 -4 10 -3 0
-8 -4 -11 -10z"/>
<path d="M1990 4360 c0 -5 5 -10 11 -10 5 0 7 5 4 10 -3 6 -8 10 -11 10 -2 0
-4 -4 -4 -10z"/>
<path d="M1916 4307 c3 -10 9 -15 12 -12 3 3 0 11 -7 18 -10 9 -11 8 -5 -6z"/>
<path d="M1826 4158 c3 -4 9 -8 15 -8 5 0 9 4 9 8 0 5 -7 9 -15 9 -8 0 -12 -4
-9 -9z"/>
<path d="M1710 4061 c0 -6 4 -13 10 -16 6 -3 7 1 4 9 -7 18 -14 21 -14 7z"/>
<path d="M1517 3779 c7 -7 15 -10 18 -7 3 3 -2 9 -12 12 -14 6 -15 5 -6 -5z"/>
<path d="M1455 3700 c-3 -5 -1 -10 4 -10 6 0 11 5 11 10 0 6 -2 10 -4 10 -3 0
-8 -4 -11 -10z"/>
<path d="M3630 3676 c0 -8 4 -17 9 -20 5 -4 7 3 4 14 -6 23 -13 26 -13 6z"/>
<path d="M1390 3665 c0 -5 5 -17 10 -25 5 -8 10 -10 10 -5 0 6 -5 17 -10 25
-5 8 -10 11 -10 5z"/>
<path d="M3753 3525 c0 -8 4 -15 9 -15 4 0 8 4 8 9 0 6 -4 12 -8 15 -5 3 -9
-1 -9 -9z"/>
<path d="M1290 3445 c-7 -9 -11 -17 -9 -20 3 -2 10 5 17 15 14 24 10 26 -8 5z"/>
<path d="M1250 3440 c0 -5 5 -10 11 -10 5 0 7 5 4 10 -3 6 -8 10 -11 10 -2 0
-4 -4 -4 -10z"/>
<path d="M1146 3302 c-3 -5 1 -9 9 -9 8 0 12 4 9 9 -3 4 -7 8 -9 8 -2 0 -6 -4
-9 -8z"/>
<path d="M1113 3245 c0 -8 4 -12 9 -9 5 3 6 10 3 15 -9 13 -12 11 -12 -6z"/>
<path d="M1150 3240 c-13 -8 -12 -10 3 -10 9 0 17 5 17 10 0 12 -1 12 -20 0z"/>
<path d="M3999 3218 c-5 -18 -6 -38 -1 -34 7 8 12 36 6 36 -2 0 -4 -1 -5 -2z"/>
<path d="M3986 3162 c-3 -5 1 -9 9 -9 8 0 12 4 9 9 -3 4 -7 8 -9 8 -2 0 -6 -4
-9 -8z"/>
<path d="M4070 3056 c0 -2 8 -10 18 -17 15 -13 16 -12 3 4 -13 16 -21 21 -21
13z"/>
<path d="M1005 3040 c-3 -6 1 -7 9 -4 18 7 21 14 7 14 -6 0 -13 -4 -16 -10z"/>
<path d="M996 2995 c-3 -9 -11 -13 -17 -9 -8 5 -9 3 -4 -5 6 -10 11 -9 23 3 9
8 13 18 10 21 -3 3 -8 -1 -12 -10z"/>
<path d="M4095 2980 c3 -5 8 -10 11 -10 2 0 4 5 4 10 0 6 -5 10 -11 10 -5 0
-7 -4 -4 -10z"/>
<path d="M4127 2913 c3 -7 6 -13 8 -13 2 0 5 6 8 13 3 8 -1 14 -8 14 -7 0 -11
-6 -8 -14z"/>
<path d="M4171 2834 c0 -11 3 -14 6 -6 3 7 2 16 -1 19 -3 4 -6 -2 -5 -13z"/>
<path d="M879 2748 c-5 -18 -6 -38 -1 -34 7 8 12 36 6 36 -2 0 -4 -1 -5 -2z"/>
<path d="M4229 2737 c5 -5 7 -15 5 -22 -3 -7 -2 -15 3 -18 4 -3 8 7 8 22 1 17
-5 28 -12 28 -9 0 -10 -4 -4 -10z"/>
<path d="M860 2692 c0 -6 -8 -9 -17 -6 -15 5 -16 4 -3 -5 16 -11 40 3 27 16
-4 3 -7 1 -7 -5z"/>
<path d="M4260 2680 c-8 -5 -10 -10 -5 -10 6 0 17 5 25 10 8 5 11 10 5 10 -5
0 -17 -5 -25 -10z"/>
<path d="M4315 2649 c-4 -6 -5 -12 -2 -15 2 -3 7 2 10 11 7 17 1 20 -8 4z"/>
<path d="M806 2602 c-3 -5 1 -9 9 -9 8 0 12 4 9 9 -3 4 -7 8 -9 8 -2 0 -6 -4
-9 -8z"/>
<path d="M787 2559 c7 -7 15 -10 18 -7 3 3 -2 9 -12 12 -14 6 -15 5 -6 -5z"/>
<path d="M4326 2522 c-3 -5 1 -9 9 -9 8 0 12 4 9 9 -3 4 -7 8 -9 8 -2 0 -6 -4
-9 -8z"/>
<path d="M735 2460 c-3 -5 -1 -10 4 -10 6 0 11 5 11 10 0 6 -2 10 -4 10 -3 0
-8 -4 -11 -10z"/>
<path d="M4350 2459 c0 -5 5 -7 10 -4 6 3 10 8 10 11 0 2 -4 4 -10 4 -5 0 -10
-5 -10 -11z"/>
<path d="M4370 2440 c0 -5 5 -10 11 -10 5 0 7 5 4 10 -3 6 -8 10 -11 10 -2 0
-4 -4 -4 -10z"/>
<path d="M694 2379 c-4 -7 -3 -9 4 -5 6 3 15 -2 21 -11 6 -10 11 -13 11 -7 0
20 -27 37 -36 23z"/>
<path d="M4406 2338 c3 -5 10 -6 15 -3 13 9 11 12 -6 12 -8 0 -12 -4 -9 -9z"/>
<path d="M690 2300 c0 -5 5 -10 11 -10 5 0 7 5 4 10 -3 6 -8 10 -11 10 -2 0
-4 -4 -4 -10z"/>
<path d="M4430 2260 c0 -5 5 -10 11 -10 5 0 7 5 4 10 -3 6 -8 10 -11 10 -2 0
-4 -4 -4 -10z"/>
<path d="M673 2235 c0 -8 4 -12 9 -9 4 3 8 9 8 15 0 5 -4 9 -8 9 -5 0 -9 -7
-9 -15z"/>
<path d="M636 2193 c-6 -14 -5 -15 5 -6 7 7 10 15 7 18 -3 3 -9 -2 -12 -12z"/>
<path d="M4466 2182 c-3 -5 1 -9 9 -9 8 0 12 4 9 9 -3 4 -7 8 -9 8 -2 0 -6 -4
-9 -8z"/>
<path d="M626 2118 c3 -5 10 -6 15 -3 13 9 11 12 -6 12 -8 0 -12 -4 -9 -9z"/>
<path d="M596 2043 c-6 -14 -5 -15 5 -6 7 7 10 15 7 18 -3 3 -9 -2 -12 -12z"/>
<path d="M616 2033 c-6 -14 -5 -15 5 -6 7 7 10 15 7 18 -3 3 -9 -2 -12 -12z"/>
<path d="M4513 2043 c4 -3 1 -13 -6 -22 -11 -14 -10 -14 6 -2 20 15 22 31 5
31 -6 0 -8 -3 -5 -7z"/>
<path d="M590 1999 c0 -5 5 -7 10 -4 6 3 10 8 10 11 0 2 -4 4 -10 4 -5 0 -10
-5 -10 -11z"/>
<path d="M559 1928 c-5 -18 -6 -38 -1 -34 7 8 12 36 6 36 -2 0 -4 -1 -5 -2z"/>
<path d="M4570 1861 c0 -6 4 -13 10 -16 6 -3 7 1 4 9 -7 18 -14 21 -14 7z"/>
<path d="M4555 1800 c-3 -5 -1 -10 4 -10 6 0 11 5 11 10 0 6 -2 10 -4 10 -3 0
-8 -4 -11 -10z"/>
<path d="M557 1793 c-10 -9 -9 -23 1 -23 5 0 9 7 9 15 0 17 -1 18 -10 8z"/>
<path d="M4575 1760 c3 -5 8 -10 11 -10 2 0 4 5 4 10 0 6 -5 10 -11 10 -5 0
-7 -4 -4 -10z"/>
<path d="M535 1750 c-3 -6 1 -7 9 -4 18 7 21 14 7 14 -6 0 -13 -4 -16 -10z"/>
<path d="M533 1715 c0 -8 4 -12 9 -9 5 3 6 10 3 15 -9 13 -12 11 -12 -6z"/>
<path d="M4560 1717 c0 -2 6 -10 14 -16 11 -9 16 -9 22 1 4 7 4 10 -1 6 -4 -4
-14 -3 -22 3 -7 6 -13 9 -13 6z"/>
<path d="M4605 1680 c-3 -6 1 -7 9 -4 18 7 21 14 7 14 -6 0 -13 -4 -16 -10z"/>
<path d="M497 1655 c-4 -8 -3 -16 1 -19 4 -3 9 4 9 15 2 23 -3 25 -10 4z"/>
<path d="M4597 1635 c-4 -8 -3 -16 1 -19 4 -3 9 4 9 15 2 23 -3 25 -10 4z"/>
<path d="M479 1573 c-13 -16 -12 -17 4 -4 9 7 17 15 17 17 0 8 -8 3 -21 -13z"/>
<path d="M513 1573 c0 -11 7 -20 14 -20 10 0 10 4 1 16 -7 9 -13 18 -15 20 -1
2 -1 -5 0 -16z"/>
<path d="M4588 1583 c7 -3 16 -2 19 1 4 3 -2 6 -13 5 -11 0 -14 -3 -6 -6z"/>
<path d="M4616 1553 c-6 -14 -5 -15 5 -6 7 7 10 15 7 18 -3 3 -9 -2 -12 -12z"/>
<path d="M508 1533 c7 -3 16 -2 19 1 4 3 -2 6 -13 5 -11 0 -14 -3 -6 -6z"/>
<path d="M4595 1520 c3 -5 8 -10 11 -10 2 0 4 5 4 10 0 6 -5 10 -11 10 -5 0
-7 -4 -4 -10z"/>
<path d="M4595 1491 c-3 -5 0 -13 6 -17 7 -4 9 -3 5 4 -3 5 0 13 6 15 9 4 10
6 1 6 -6 1 -14 -3 -18 -8z"/>
<path d="M510 1459 c0 -5 5 -7 10 -4 6 3 10 8 10 11 0 2 -4 4 -10 4 -5 0 -10
-5 -10 -11z"/>
<path d="M496 1437 c3 -10 9 -15 12 -12 3 3 0 11 -7 18 -10 9 -11 8 -5 -6z"/>
<path d="M475 1420 c3 -5 8 -10 11 -10 2 0 4 5 4 10 0 6 -5 10 -11 10 -5 0 -7
-4 -4 -10z"/>
<path d="M4610 1410 c-9 -6 -10 -10 -3 -10 6 0 15 5 18 10 8 12 4 12 -15 0z"/>
<path d="M511 1394 c0 -11 3 -14 6 -6 3 7 2 16 -1 19 -3 4 -6 -2 -5 -13z"/>
<path d="M4603 1375 c0 -8 4 -12 9 -9 5 3 6 10 3 15 -9 13 -12 11 -12 -6z"/>
<path d="M490 1366 c0 -2 7 -7 16 -10 8 -3 12 -2 9 4 -6 10 -25 14 -25 6z"/>
<path d="M477 1332 c-14 -15 -14 -19 -3 -19 8 0 14 5 13 11 -1 6 4 10 11 8 8
-1 11 2 7 8 -8 13 -9 13 -28 -8z"/>
<path d="M4621 1324 c0 -11 3 -14 6 -6 3 7 2 16 -1 19 -3 4 -6 -2 -5 -13z"/>
<path d="M4599 1258 c-15 -29 11 -72 27 -46 4 6 3 8 -3 5 -12 -8 -26 20 -17
34 3 5 3 9 0 9 -3 0 -7 -1 -7 -2z"/>
<path d="M490 1245 c0 -7 30 -13 34 -7 3 4 -4 9 -15 9 -10 1 -19 0 -19 -2z"/>
<path d="M480 1220 c-12 -7 -10 -9 7 -7 12 0 19 5 17 9 -6 10 -6 10 -24 -2z"/>
<path d="M520 1199 c0 -5 -5 -7 -11 -3 -8 4 -8 1 -1 -12 5 -11 7 -25 5 -31 -3
-7 -1 -13 4 -13 4 0 8 16 9 35 0 19 -1 35 -3 35 -1 0 -3 -5 -3 -11z"/>
<path d="M4636 1158 c3 -5 10 -6 15 -3 13 9 11 12 -6 12 -8 0 -12 -4 -9 -9z"/>
<path d="M495 1120 c3 -5 8 -10 11 -10 2 0 4 5 4 10 0 6 -5 10 -11 10 -5 0 -7
-4 -4 -10z"/>
<path d="M4590 1100 c0 -5 5 -10 11 -10 5 0 7 5 4 10 -3 6 -8 10 -11 10 -2 0
-4 -4 -4 -10z"/>
<path d="M506 1085 c-9 -26 -7 -32 5 -12 6 10 9 21 6 23 -2 3 -7 -2 -11 -11z"/>
<path d="M527 1066 c-4 -10 -1 -13 8 -9 8 3 12 9 9 14 -7 12 -11 11 -17 -5z"/>
<path d="M4573 1067 c-3 -6 -1 -7 5 -3 5 3 12 1 14 -6 3 -8 6 -7 10 3 7 17
-19 22 -29 6z"/>
<path d="M4619 1063 c0 -5 -2 -16 -4 -26 -2 -11 -1 -16 3 -13 8 8 14 46 7 46
-3 0 -5 -3 -6 -7z"/>
<path d="M495 1040 c-4 -6 -1 -9 7 -8 7 2 12 -3 11 -9 -2 -7 2 -13 7 -13 14 0
12 16 -4 29 -10 8 -16 9 -21 1z"/>
<path d="M4613 989 c-2 -23 3 -25 10 -4 4 8 3 16 -1 19 -4 3 -9 -4 -9 -15z"/>
<path d="M546 861 c-4 -5 3 -7 14 -4 23 6 26 13 6 13 -8 0 -17 -4 -20 -9z"/>
<path d="M585 852 c-14 -10 -19 -46 -6 -37 6 3 11 12 11 20 0 7 6 16 13 18 6
3 8 6 2 6 -5 0 -14 -3 -20 -7z"/>
<path d="M4557 853 c-10 -9 -9 -23 1 -23 5 0 9 7 9 15 0 17 -1 18 -10 8z"/>
<path d="M589 799 c-23 -19 -23 -20 -2 -10 14 7 24 8 28 1 3 -5 1 -10 -6 -10
-7 0 -4 -7 7 -15 10 -8 24 -14 29 -15 6 0 3 5 -5 10 -13 9 -13 10 0 10 12 1
11 3 -3 11 -9 6 -15 14 -12 19 12 19 -14 19 -36 -1z"/>
<path d="M4513 790 c-7 -10 -10 -27 -6 -37 6 -17 5 -17 -14 0 -16 14 -20 14
-20 2 0 -8 4 -12 8 -9 4 2 10 0 14 -5 3 -6 12 -8 21 -4 11 4 12 8 3 19 -9 11
-8 19 6 34 10 11 14 20 9 20 -5 0 -15 -9 -21 -20z"/>
<path d="M576 762 c-3 -5 1 -9 9 -9 8 0 12 4 9 9 -3 4 -7 8 -9 8 -2 0 -6 -4
-9 -8z"/>
<path d="M603 733 c-3 -10 -8 -21 -10 -25 -2 -4 2 -10 9 -14 7 -4 10 -4 6 0
-4 5 -3 19 2 32 5 13 7 24 4 24 -2 0 -7 -8 -11 -17z"/>
<path d="M630 729 c0 -5 4 -8 9 -5 8 5 23 -17 25 -37 1 -4 7 -12 15 -16 8 -6
9 -11 3 -15 -6 -3 -14 -2 -17 4 -8 13 -35 -6 -35 -24 0 -6 5 -3 11 7 8 13 14
15 23 7 10 -7 17 -6 25 4 10 11 8 17 -6 25 -10 6 -15 11 -10 11 10 0 -23 50
-34 50 -5 0 -9 -5 -9 -11z"/>
<path d="M630 701 c0 -5 5 -13 10 -16 6 -3 10 -2 10 4 0 5 -4 13 -10 16 -5 3
-10 2 -10 -4z"/>
<path d="M4470 672 c0 -15 28 -23 36 -9 4 7 4 9 -1 5 -4 -4 -14 -3 -22 3 -8 7
-13 8 -13 1z"/>
<path d="M664 598 c-4 -7 -3 -8 5 -4 6 4 20 2 29 -6 15 -12 16 -11 3 5 -16 20
-27 22 -37 5z"/>
<path d="M4415 600 c3 -5 8 -10 11 -10 2 0 4 5 4 10 0 6 -5 10 -11 10 -5 0 -7
-4 -4 -10z"/>
<path d="M748 533 c7 -3 16 -2 19 1 4 3 -2 6 -13 5 -11 0 -14 -3 -6 -6z"/>
<path d="M4290 526 c-7 -9 -17 -13 -23 -9 -5 3 -7 1 -3 -5 6 -11 -10 -26 -29
-27 -5 0 -9 -8 -7 -18 2 -9 -2 -16 -9 -15 -6 2 -13 -5 -14 -15 -3 -15 -1 -16
11 -6 10 8 14 8 14 0 0 -6 8 -11 17 -11 15 0 14 2 -3 15 -17 13 -17 14 -2 15
9 0 23 9 31 20 8 11 16 17 20 14 3 -3 4 2 3 13 -4 24 5 38 14 22 7 -10 11 -10
24 0 12 10 19 11 30 2 11 -9 16 -9 22 1 4 7 4 10 -1 6 -4 -4 -14 -3 -22 3 -9
8 -17 8 -26 0 -9 -7 -17 -7 -24 0 -7 7 -14 5 -23 -5z m-12 -36 c-16 -25 -35
-33 -44 -18 -4 6 -3 8 3 5 6 -4 18 2 28 13 23 26 29 26 13 0z"/>
<path d="M735 500 c-2 -3 5 -7 16 -7 10 -1 19 2 19 6 0 9 -29 10 -35 1z"/>
<path d="M4335 500 c-3 -6 1 -7 9 -4 18 7 21 14 7 14 -6 0 -13 -4 -16 -10z"/>
<path d="M4310 485 c0 -8 4 -15 10 -15 5 0 7 7 4 15 -4 8 -8 15 -10 15 -2 0
-4 -7 -4 -15z"/>
<path d="M2714 459 c-1 -16 3 -29 8 -29 5 0 7 3 5 8 -3 4 1 13 9 19 7 7 15 9
19 4 3 -5 1 -12 -5 -16 -13 -8 -3 -25 13 -25 8 0 8 3 -2 9 -8 5 -9 11 -3 15 6
4 15 -2 21 -11 6 -10 11 -13 11 -6 0 6 -5 15 -11 18 -6 4 -8 13 -6 20 4 8 -3
12 -16 11 -12 -1 -27 1 -32 5 -6 5 -11 -4 -11 -22z"/>
<path d="M2232 457 c-7 -8 -9 -17 -5 -20 3 -4 1 -7 -5 -7 -7 0 -12 6 -12 13 0
8 -4 7 -10 -3 -9 -13 -10 -13 -10 0 0 9 -3 11 -8 5 -4 -5 -13 -10 -21 -10 -16
0 -25 -41 -11 -50 6 -3 7 1 4 9 -4 11 0 16 11 16 9 0 13 -4 10 -10 -3 -5 -1
-10 5 -10 7 0 9 8 5 19 -6 20 8 23 34 7 9 -6 19 -1 32 15 15 19 19 20 19 7 0
-9 4 -20 10 -23 5 -3 7 0 4 8 -3 8 2 14 11 14 9 0 14 -6 11 -14 -4 -8 -1 -11
5 -8 6 4 8 13 5 21 -3 8 1 14 10 14 8 0 12 -4 9 -10 -3 -5 -2 -10 4 -10 5 0 9
9 8 19 -1 12 -8 19 -19 18 -10 -1 -18 -4 -18 -8 0 -9 -54 -6 -61 4 -3 4 -11 2
-17 -6z"/>
<path d="M4279 453 c-13 -16 -12 -17 4 -4 9 7 17 15 17 17 0 8 -8 3 -21 -13z"/>
<path d="M2829 455 c-4 -14 -6 -22 -14 -38 -4 -10 -5 -21 -1 -24 3 -4 6 1 6
10 0 9 9 21 20 27 11 6 18 15 15 21 -6 9 -24 13 -26 4z"/>
<path d="M830 441 c0 -6 4 -13 10 -16 6 -3 7 1 4 9 -7 18 -14 21 -14 7z"/>
<path d="M2863 431 c-10 -15 -9 -20 2 -25 10 -3 12 0 8 12 -6 15 -5 15 10 3 9
-7 15 -17 12 -20 -2 -4 2 -8 9 -8 8 0 12 6 9 14 -3 7 -9 13 -14 13 -5 0 -8 5
-6 11 4 20 -18 20 -30 0z"/>
<path d="M2490 419 c0 -5 5 -7 10 -4 6 3 10 8 10 11 0 2 -4 4 -10 4 -5 0 -10
-5 -10 -11z"/>
<path d="M2947 416 c-3 -6 1 -20 8 -30 14 -19 14 -19 27 28 4 14 -30 16 -35 2z
m27 -11 c-4 -8 -11 -12 -16 -9 -6 4 -5 10 3 15 19 12 19 11 13 -6z"/>
<path d="M2114 400 c0 -11 5 -21 12 -24 7 -3 9 5 6 20 -5 29 -18 32 -18 4z"/>
<path d="M2350 417 c0 -2 6 -10 14 -16 11 -9 16 -9 22 1 4 7 4 10 -1 6 -4 -4
-14 -3 -22 3 -7 6 -13 9 -13 6z"/>
<path d="M4210 400 c0 -5 5 -10 10 -10 6 0 10 5 10 10 0 6 -4 10 -10 10 -5 0
-10 -4 -10 -10z"/>
<path d="M2239 373 c-13 -16 -12 -17 4 -4 16 13 21 21 13 21 -2 0 -10 -8 -17
-17z"/>
<path d="M2930 380 c0 -5 5 -10 11 -10 5 0 7 5 4 10 -3 6 -8 10 -11 10 -2 0
-4 -4 -4 -10z"/>
<path d="M3156 368 c3 -5 10 -6 15 -3 13 9 11 12 -6 12 -8 0 -12 -4 -9 -9z"/>
<path d="M4075 370 c3 -5 8 -10 11 -10 2 0 4 5 4 10 0 6 -5 10 -11 10 -5 0 -7
-4 -4 -10z"/>
<path d="M920 360 c8 -5 20 -10 25 -10 6 0 3 5 -5 10 -8 5 -19 10 -25 10 -5 0
-3 -5 5 -10z"/>
<path d="M1884 358 c-4 -7 -4 -10 1 -6 4 4 15 2 23 -5 12 -10 14 -9 11 2 -7
20 -26 25 -35 9z"/>
<path d="M2030 366 c0 -2 7 -6 15 -10 8 -3 15 -1 15 4 0 6 -7 10 -15 10 -8 0
-15 -2 -15 -4z"/>
<path d="M2097 355 c-4 -8 -2 -17 4 -20 5 -4 8 -1 7 7 -2 7 3 12 10 10 8 -1
11 2 7 8 -9 14 -22 12 -28 -5z"/>
<path d="M1796 328 c-10 -13 -16 -17 -16 -9 0 8 -3 12 -6 9 -3 -4 2 -17 10
-30 9 -14 14 -27 10 -30 -3 -3 -1 -8 3 -11 5 -3 9 5 9 19 0 13 -5 24 -10 24
-6 0 -5 4 3 9 8 5 16 17 17 25 3 22 -2 20 -20 -6z"/>
<path d="M2015 340 c-3 -6 1 -7 9 -4 18 7 21 14 7 14 -6 0 -13 -4 -16 -10z"/>
<path d="M2985 340 c-3 -6 1 -7 9 -4 18 7 21 14 7 14 -6 0 -13 -4 -16 -10z"/>
<path d="M3024 343 c4 -4 16 -8 28 -10 28 -4 18 6 -12 12 -12 2 -20 1 -16 -2z"/>
<path d="M3096 342 c-2 -4 -1 -14 4 -22 7 -11 9 -9 7 8 -1 24 -3 26 -11 14z"/>
<path d="M4075 340 c3 -5 8 -10 11 -10 2 0 4 5 4 10 0 6 -5 10 -11 10 -5 0 -7
-4 -4 -10z"/>
<path d="M1710 320 c0 -5 5 -10 12 -10 6 0 8 -3 5 -6 -4 -4 -13 -1 -21 5 -10
8 -16 9 -21 1 -3 -6 -10 -8 -14 -6 -4 3 -7 -4 -8 -15 -1 -13 4 -18 17 -16 11
2 23 6 26 10 13 12 24 7 24 -10 0 -15 2 -16 10 -3 6 9 5 17 -1 21 -6 3 -10 9
-10 13 3 18 0 26 -9 26 -5 0 -10 -4 -10 -10z m-12 -26 c-1 -5 -9 -9 -16 -10
-10 -2 -11 1 -1 12 12 14 24 13 17 -2z"/>
<path d="M1751 320 c0 -8 4 -22 9 -30 12 -18 12 -2 0 25 -6 13 -9 15 -9 5z"/>
<path d="M3126 318 c3 -4 9 -8 15 -8 5 0 9 4 9 8 0 5 -7 9 -15 9 -8 0 -12 -4
-9 -9z"/>
<path d="M1568 295 c-7 -5 -14 -17 -16 -25 -1 -8 7 -4 18 10 14 18 20 20 20
10 0 -9 -5 -21 -12 -28 -8 -8 -9 -12 -1 -12 6 0 13 4 15 9 5 15 43 18 41 4 -2
-7 1 -13 6 -13 5 0 9 11 9 25 0 29 -2 29 -31 13 -19 -10 -20 -9 -10 3 10 12 8
15 -7 15 -10 0 -25 -5 -32 -11z"/>
<path d="M1855 301 c-3 -5 0 -13 6 -17 8 -5 9 -3 4 6 -6 10 -4 12 9 7 10 -4
15 -3 11 3 -8 13 -22 13 -30 1z"/>
<path d="M1930 299 c0 -5 5 -7 10 -4 6 3 10 8 10 11 0 2 -4 4 -10 4 -5 0 -10
-5 -10 -11z"/>
<path d="M3665 289 c-6 -17 -9 -19 -16 -8 -7 12 -9 11 -9 -1 0 -13 -2 -13 -11
0 -9 12 -10 11 -4 -5 4 -11 8 -25 9 -32 1 -7 5 -15 9 -19 3 -4 4 6 1 21 -5 26
-3 27 12 14 12 -9 15 -10 10 -1 -5 8 0 12 13 12 24 0 27 13 7 29 -12 10 -16 8
-21 -10z"/>
<path d="M3823 288 c-1 -10 3 -18 8 -18 6 0 7 5 4 10 -3 6 1 10 10 10 9 0 13
-4 10 -10 -3 -5 -2 -10 4 -10 5 0 9 8 8 19 -2 24 -43 23 -44 -1z"/>
<path d="M1141 284 c0 -11 3 -14 6 -6 3 7 2 16 -1 19 -3 4 -6 -2 -5 -13z"/>
<path d="M1450 285 c0 -5 5 -17 10 -25 7 -11 10 -11 10 -2 0 7 4 11 8 8 5 -3
9 1 9 9 0 8 -4 15 -9 15 -4 0 -8 -6 -8 -12 0 -9 -4 -8 -10 2 -5 8 -10 11 -10
5z"/>
<path d="M3296 273 c-6 -14 -5 -15 5 -6 7 7 10 15 7 18 -3 3 -9 -2 -12 -12z"/>
<path d="M4053 275 c0 -8 4 -12 9 -9 5 3 6 10 3 15 -9 13 -12 11 -12 -6z"/>
<path d="M1190 272 c0 -6 9 -12 20 -15 11 -3 20 -3 20 -1 0 2 -9 8 -20 14 -11
6 -20 7 -20 2z"/>
<path d="M3690 250 c-9 -6 -10 -10 -3 -10 6 0 15 5 18 10 8 12 4 12 -15 0z"/>
<path d="M3770 250 c-9 -6 -10 -10 -3 -10 6 0 15 5 18 10 8 12 4 12 -15 0z"/>
<path d="M3820 246 c7 -7 13 -7 20 0 6 6 3 10 -10 10 -13 0 -16 -4 -10 -10z"/>
<path d="M3870 257 c0 -2 6 -10 14 -16 11 -9 16 -9 22 1 4 7 4 10 -1 6 -4 -4
-14 -3 -22 3 -7 6 -13 9 -13 6z"/>
<path d="M1279 233 c-13 -16 -12 -17 4 -4 16 13 21 21 13 21 -2 0 -10 -8 -17
-17z"/>
<path d="M1480 239 c0 -5 5 -7 10 -4 6 3 10 8 10 11 0 2 -4 4 -10 4 -5 0 -10
-5 -10 -11z"/>
<path d="M3436 238 c3 -5 10 -6 15 -3 13 9 11 12 -6 12 -8 0 -12 -4 -9 -9z"/>
<path d="M3580 245 c0 -7 30 -13 34 -7 3 4 -4 9 -15 9 -10 1 -19 0 -19 -2z"/>
<path d="M1235 221 c-3 -5 -2 -12 3 -15 5 -3 9 1 9 9 0 17 -3 19 -12 6z"/>
<path d="M1390 216 c7 -7 13 -7 20 0 6 6 3 10 -10 10 -13 0 -16 -4 -10 -10z"/>
<path d="M1530 219 c0 -5 5 -7 10 -4 6 3 10 8 10 11 0 2 -4 4 -10 4 -5 0 -10
-5 -10 -11z"/>
<path d="M3490 226 c0 -2 7 -7 16 -10 8 -3 12 -2 9 4 -6 10 -25 14 -25 6z"/>
<path d="M3570 219 c0 -5 5 -7 10 -4 6 3 10 8 10 11 0 2 -4 4 -10 4 -5 0 -10
-5 -10 -11z"/>
<path d="M3770 226 c0 -2 7 -7 16 -10 8 -3 12 -2 9 4 -6 10 -25 14 -25 6z"/>
</g>
</svg>
